<svg width="120" height="280" viewBox="0 0 120 280" fill="none" xmlns="http://www.w3.org/2000/svg">
<path opacity="0.5" d="M19.9998 7C19.4475 7 18.9998 7.44772 18.9998 8C18.9998 8.55228 19.4475 9 19.9998 9V7ZM19.9998 9H47.9998V7H19.9998V9ZM111 72V76H113V72H111ZM47.9998 139H19.9998V141H47.9998V139ZM19.9998 139H0V141H19.9998V139ZM111 76C111 110.794 82.7937 139 47.9998 139V141C83.8983 141 113 111.899 113 76H111ZM47.9998 9C82.7937 9 111 37.2061 111 72H113C113 36.1015 83.8983 7 47.9998 7V9Z" fill="#070200"/>
</svg>
