<svg xmlns="http://www.w3.org/2000/svg" xmlns:xlink="http://www.w3.org/1999/xlink"><symbol id="icon__apartments" viewBox="0 0 120 120"><g fill="none"><path d="M54.28 82.127h-2.873c-.626 0-1.133.508-1.133 1.134v5.29c0 .626.507 1.133 1.133 1.133h2.872c.626 0 1.133-.507 1.133-1.133v-5.29c0-.626-.507-1.134-1.133-1.134Zm-1.135 5.29h-.604v-3.023h.604v3.023ZM84.56 82.127h-2.879c-.626 0-1.133.508-1.133 1.134v5.29c0 .626.507 1.133 1.133 1.133h2.88c.626 0 1.133-.507 1.133-1.133v-5.29c0-.626-.507-1.134-1.134-1.134Zm-1.134 5.29h-.612v-3.023h.613v3.023ZM54.28 68.027h-2.873c-.626 0-1.133.507-1.133 1.133v5.29c0 .626.507 1.133 1.133 1.133h2.872c.626 0 1.133-.507 1.133-1.133v-5.29a1.134 1.134 0 0 0-1.133-1.133Zm-1.135 5.29h-.604v-3.023h.604v3.023ZM64.376 68.027H61.51a1.196 1.196 0 0 0-.513.128 1.14 1.14 0 0 0-.62 1.005v5.29c.003.424.242.811.62 1.005.16.08.334.124.513.128h2.88c.626 0 1.133-.507 1.133-1.133v-5.29a1.133 1.133 0 0 0-1.148-1.133Zm-1.134 5.29h-.612v-3.023h.612v3.023ZM74.472 68.027h-2.88c-.625 0-1.133.507-1.133 1.133v5.29c0 .626.508 1.133 1.134 1.133h2.879a1.141 1.141 0 0 0 1.134-1.133v-5.29a1.135 1.135 0 0 0-1.134-1.133Zm-1.134 5.29h-.612v-3.023h.612v3.023ZM84.56 68.027h-2.879c-.626 0-1.133.507-1.133 1.133v5.29c0 .626.507 1.133 1.133 1.133h2.88c.626 0 1.133-.507 1.133-1.133v-5.29a1.135 1.135 0 0 0-1.134-1.133Zm-1.134 5.29h-.612v-3.023h.613v3.023Z" fill="#F1A000"/><path d="M94.007 92.874h-2.698V60.591c0-.626-.507-1.134-1.134-1.134h-4.48V30.392a1.112 1.112 0 0 0-.462-.907 1.133 1.133 0 0 0-1.005-.174l-22.112 6.801V25.993c0-.626-.508-1.133-1.134-1.133H29.825c-.627 0-1.134.507-1.134 1.134v66.88h-2.698a1.134 1.134 0 0 0 0 2.267h68.014a1.133 1.133 0 0 0 0-2.267ZM36.708 27.126v4.323h-1.511v-4.3l1.511-.023Zm3.78 0v4.323h-1.512v-4.3l1.511-.023Zm3.778 0v4.323h-1.512v-4.3l1.512-.023Zm3.779 0v4.323h-1.512v-4.3l1.512-.023Zm3.778 0v4.323h-1.511v-4.3l1.511-.023Zm3.78 0v4.323H54.09v-4.3l1.512-.023Zm4.246 0v4.323h-1.98v-4.3l1.98-.023Zm10.203 17.381v6.348h-4.534v-6.348h4.534Zm6.8 0v6.348H72.32v-6.348h4.534Zm6.576 0v6.348h-4.309v-6.347l4.309-.001Zm-52.47 27.018h1.972v5.29h-1.972v-5.29Zm0-15.115h25.695v3.023H45.9c-.627 0-1.134.507-1.134 1.134v8.69H30.959V56.41Zm39.093 3.023h-4.534v-6.348h4.534v6.348Zm-6.802 0h-4.307v-6.348h4.307v6.348ZM35.198 71.524h1.511v5.29h-1.511v-5.29Zm3.779 0h1.511v5.29h-1.511v-5.29Zm3.778 0h2.01v5.29h-2.01v-5.29Zm34.098-12.091H72.32v-6.348h4.534v6.348ZM63.25 50.818h-4.308V44.47h4.307l.001 6.348Zm-7.648 3.325H54.09v-5.29h1.512v5.29Zm-3.779 0h-1.512v-5.29h1.512v5.29Zm-3.779 0h-1.511v-5.29h1.511v5.29Zm-3.778 0h-1.512v-5.29h1.512v5.29Zm-3.78 0h-1.51v-5.29h1.51v5.29Zm-3.778 0h-1.511v-5.29h1.511v5.29Zm-3.779 0h-1.971v-5.29h1.972v5.29Zm-1.972 24.939h13.808V92.85H30.958V79.08ZM62.116 92.85h-1.444v-8.457h6.235v8.456h-4.791Zm7.058-8.457h6.227v8.456h-6.227v-8.456Zm19.867 8.456H77.668v-9.59c0-.625-.508-1.133-1.134-1.133H59.538a1.09 1.09 0 0 0-.597.174c-.333.206-.536.569-.537.96v9.59H47.068V61.721h41.974V92.85Zm-5.615-33.395h-4.308v-6.348h4.308v6.348Zm0-17.231H58.941v-2.796l.907-.272 1.133-.317 1.134-.348 21.311-6.567v10.3Zm-52.47-15.076h1.973v4.323h-1.972v-4.323Zm3.107 6.59h25.785v3.022l-2.373.756a1.135 1.135 0 0 0-.8 1.088v7.98H30.98V33.739h3.083Z" fill="#F1A000"/></g></symbol><symbol id="icon__arrow" viewBox="0 0 40 40"><g fill="none"><path d="M1 19a1 1 0 1 0 0 2v-2Zm38.707 1.707a1 1 0 0 0 0-1.414l-6.364-6.364a1 1 0 0 0-1.414 1.414L37.586 20l-5.657 5.657a1 1 0 0 0 1.414 1.414l6.364-6.364ZM1 21h38v-2H1v2Z" fill="#070200"/></g></symbol><symbol id="icon__arrow_link" viewBox="0 0 666 136"><g fill="none"><path opacity=".5" d="M6.293 134.707a1 1 0 0 0 1.414 0l6.364-6.364a1 1 0 1 0-1.414-1.414L7 132.586l-5.657-5.657a1 1 0 1 0-1.414 1.414l6.364 6.364ZM595 67H71v2h524v-2Zm63-65v2h2V2h-2ZM6 132v2h2v-2H6Zm65-65C35.102 67 6 96.102 6 132h2c0-34.794 28.206-63 63-63v-2Zm524 2c35.899 0 65-29.102 65-65h-2c0 34.794-28.206 63-63 63v2Z" fill="#070200"/></g></symbol><symbol id="icon__arrow_link_d" viewBox="0 0 560 136"><g fill="none"><path opacity=".5" d="M6.293 134.707a1 1 0 0 0 1.414 0l6.364-6.364a1 1 0 1 0-1.414-1.414L7 132.586l-5.657-5.657a1 1 0 1 0-1.414 1.414l6.364 6.364ZM489 67H71v2h418v-2Zm63-65v2h2V2h-2ZM6 132v2h2v-2H6Zm65-65C35.102 67 6 96.102 6 132h2c0-34.794 28.206-63 63-63v-2Zm418 2c35.899 0 65-29.102 65-65h-2c0 34.794-28.206 63-63 63v2Z" fill="#070200"/></g></symbol><symbol id="icon__cart" viewBox="0 0 120 120"><g fill="none"><path d="M86.797 67.119a8.31 8.31 0 0 0-7.504 4.73l-3.25-1.043 11.752-21.711a1.132 1.132 0 0 0 0-1.119 1.124 1.124 0 0 0-.975-.551h-5.804a5.76 5.76 0 0 0-4.67-4.905 5.776 5.776 0 0 0-6.37-4.7 5.776 5.776 0 0 0-3.742 2.032 5.848 5.848 0 0 0-4.307-.12 9.823 9.823 0 0 0-16.195-.356h-.09a5.773 5.773 0 0 0-5.774 5.774v2.267h-6.56a1.134 1.134 0 0 0-1.08 1.511l2.758 8.646-8.645-2.781a1.146 1.146 0 0 0-.696 2.184l15.394 4.965a1.147 1.147 0 0 0-.196.635v18.198a3.863 3.863 0 0 0 3.022 3.816c.313.075.632.113.953.114a3.855 3.855 0 0 0 3.461-2.146l7.784-15.288v-.001a1.14 1.14 0 0 0 .113-.484l22.43 7.225a8.312 8.312 0 1 0 8.2-6.892h-.009ZM42.127 45.15a3.507 3.507 0 0 1 4.021-3.468 1.12 1.12 0 0 0 1.118-.522 7.559 7.559 0 0 1 13.21.567 1.134 1.134 0 0 0 1.61.446 3.524 3.524 0 0 1 3.854.105 1.13 1.13 0 0 0 1.617-.415 3.507 3.507 0 0 1 6.59 1.67c0 .626.508 1.133 1.133 1.133a3.51 3.51 0 0 1 3.416 2.736H42.128V45.15ZM54.03 66.243l-7.776 15.28a1.663 1.663 0 0 1-3.144-.756v-18.19l11.003 3.544a.649.649 0 0 0-.083.121ZM37.64 58.428l-2.78-8.736h50.08L73.89 70.097 37.64 58.428Zm49.16 23.11a6.046 6.046 0 0 1-6.046-6.801l5.698 1.806c.113.035.23.053.348.052a1.134 1.134 0 0 0 .348-2.237l-5.675-1.829a6.042 6.042 0 0 1 7.288-2.763 6.045 6.045 0 0 1-1.999 11.749l.038.023Z" fill="#F1A000"/></g></symbol><symbol id="icon__clean" viewBox="0 0 120 120"><g fill="none"><path d="M92.896 56.66h-2.532v-2.706a14.872 14.872 0 0 0-14.85-14.79h-5.418v-3.528c0-.626-.508-1.134-1.133-1.134h-4.028V27.15h8.668a1.134 1.134 0 0 0 0-2.267h-19.58a1.133 1.133 0 1 0 0 2.267h8.645v7.353h-4.035c-.626 0-1.134.508-1.134 1.134v3.53l-4.3-.001a15.978 15.978 0 0 0-15.984 15.961v27.386H33.37c-.626 0-1.134.507-1.134 1.133v9.205h-5.13a1.134 1.134 0 0 0 0 2.267H58.3a1.133 1.133 0 0 0 0-2.267h-4.15v-9.205c0-.626-.507-1.133-1.133-1.133h-3.211V55.767a4.014 4.014 0 0 1 4.012-4.013h3.68v3.53c0 .626.508 1.134 1.134 1.134h10.33c.626 0 1.134-.508 1.134-1.134v-3.53h3.704-.001a4.022 4.022 0 0 1 4.02 4.014v.891h-2.493c-.626 0-1.134.508-1.134 1.134v6.287c0 .627.508 1.134 1.134 1.134h17.57a1.134 1.134 0 0 0 1.111-1.134v-6.287c0-.617-.494-1.121-1.11-1.134l-.002.001Zm-1.156 6.288H76.46v-4.02h15.28v4.02ZM67.83 51.755v2.395l-8.063.001v-17.38l8.062-.001v14.985ZM51.883 92.852h-17.38l-.001-8.071h17.38l.001 8.07Zm1.935-43.363a6.288 6.288 0 0 0-6.28 6.28v26.745h-8.056V55.128A13.71 13.71 0 0 1 53.2 41.433h4.323v8.055h-3.703Zm19.98 0h-3.703v-8.056h5.419a12.6 12.6 0 0 1 12.574 12.522v2.729h-8.003v-.915a6.286 6.286 0 0 0-6.287-6.28Z" fill="#F1A000"/><path d="M83.186 70.489c-.627.892-6.152 8.842-6.152 12.386a7.083 7.083 0 0 0 10.55 5.94 7.082 7.082 0 0 0 3.605-5.94c0-3.544-5.524-11.494-6.152-12.386a1.172 1.172 0 0 0-1.851 0Zm-3.885 12.386c0-1.851 2.66-6.469 4.814-9.718 2.147 3.25 4.807 7.867 4.807 9.718a4.814 4.814 0 0 1-9.62 0Z" fill="#F1A000"/></g></symbol><symbol id="icon__cottage" viewBox="0 0 120 120"><g fill="none"><path d="M53.003 50.063v-4.217a5.63 5.63 0 0 0-5.623-5.622h-.529a5.627 5.627 0 0 0-5.623 5.622v4.217c0 .626.508 1.133 1.134 1.133h9.507c.626 0 1.134-.507 1.134-1.133Zm-2.267-1.134h-7.24v-3.083a3.355 3.355 0 0 1 3.355-3.355h.53a3.356 3.356 0 0 1 3.355 3.355v3.083ZM71.17 51.196h9.507c.626 0 1.134-.507 1.134-1.133v-4.217a5.629 5.629 0 0 0-5.623-5.622h-.53.002a5.629 5.629 0 0 0-5.623 5.622v4.217c0 .626.507 1.133 1.133 1.133Zm1.134-5.35a3.357 3.357 0 0 1 3.355-3.355h.53a3.357 3.357 0 0 1 3.355 3.355v3.083h-7.24v-3.084ZM56.766 51.196h9.507c.625 0 1.133-.507 1.133-1.133v-7.618a5.63 5.63 0 0 0-5.622-5.622h-.53a5.63 5.63 0 0 0-5.622 5.622v7.618c0 .626.508 1.133 1.134 1.133Zm1.133-8.75a3.353 3.353 0 0 1 3.356-3.356h.529a3.355 3.355 0 0 1 3.355 3.355v6.484h-7.24v-6.484Z" fill="#F1A000"/><path d="M94.007 57.16h-6.28V35.705a1.133 1.133 0 0 0-.756-1.081L61.867 26.62a1.096 1.096 0 0 0-.695 0L48.25 30.747v-2.759c0-.611-.485-1.112-1.097-1.133h-6.801c-.626 0-1.134.508-1.134 1.133v5.645l-3.083.99a1.133 1.133 0 0 0-.793 1.082v22.67l-9.825 4.61a1.15 1.15 0 0 0-.65 1.028v28.286c0 .623.503 1.13 1.127 1.133h68.013c.626 0 1.134-.507 1.134-1.133V58.292c0-.626-.508-1.133-1.134-1.133ZM41.454 29.122h4.534v2.343l-4.534 1.443v-3.786Zm-3.876 7.406 23.933-7.64 23.949 7.64V57.16H60c-.626 0-1.134.507-1.134 1.133v3.922L43.48 54.968a1.142 1.142 0 0 0-.968 0l-4.935 2.32v-20.76Zm-4.746 54.639V73.272h7.231v17.894h-7.231Zm8.365-20.163h-9.5c-.625 0-1.132.508-1.132 1.134v19.03h-3.44v-26.45l15.87-7.467 15.87 7.467v26.45H42.332v-19.03c0-.626-.508-1.134-1.133-1.134Zm25.64 20.162V70.838h20.367v20.329H66.838Zm26.035 0h-3.4V69.704c0-.626-.508-1.133-1.134-1.133H65.704c-.626 0-1.134.507-1.134 1.133v21.463h-3.438v-31.74h31.74v31.74Z" fill="#F1A000"/><path d="M45.846 86.927h9.506c.627 0 1.134-.508 1.134-1.134v-9.167a5.63 5.63 0 0 0-5.622-5.623h-.53a5.631 5.631 0 0 0-5.622 5.623v9.167c0 .626.507 1.134 1.134 1.134Zm1.133-10.301a3.355 3.355 0 0 1 3.355-3.355h.53a3.356 3.356 0 0 1 3.355 3.355v8.033h-7.24v-8.033ZM72.447 63.568a.702.702 0 0 0-.106-.196.975.975 0 0 0-.136-.174 1.17 1.17 0 0 0-1.602 0 1.133 1.133 0 1 0 1.602 1.602.75.75 0 0 0 .136-.174.71.71 0 0 0 .106-.197 1.06 1.06 0 0 0 0-.861ZM83.239 63.024a1.212 1.212 0 0 0-.197-.099 1.119 1.119 0 0 0-.869 0 .937.937 0 0 0-.196.099 1.149 1.149 0 0 0-.506.944.993.993 0 0 0 0 .22c.032.145.09.283.173.408a.734.734 0 0 0 .136.173.945.945 0 0 0 .37.242c.068.03.139.054.212.068h.22c.15.001.3-.03.437-.09a1.21 1.21 0 0 0 .197-.099l.166-.143a1.098 1.098 0 0 0 .31-.582.994.994 0 0 0 0-.22 1.149 1.149 0 0 0-.264-.747l-.19-.174ZM78.054 63.568a1.573 1.573 0 0 0-.106-.196 1.133 1.133 0 0 0-1.164-.484.961.961 0 0 0-.21.068.968.968 0 0 0-.198.098 1.193 1.193 0 0 0-.317.318.945.945 0 0 0-.098.196.972.972 0 0 0-.091.211 1.073 1.073 0 0 0 0 .22 1.13 1.13 0 0 0 .506.944l.197.106.21.06h.001c.073.008.147.008.22 0 .626 0 1.133-.507 1.133-1.133a1.04 1.04 0 0 0 0-.197 1.718 1.718 0 0 0-.083-.211ZM78.659 86.095h-3.31a1.134 1.134 0 0 0 0 2.268h3.31a1.134 1.134 0 0 0 0-2.268Z" fill="#F1A000"/></g></symbol><symbol id="icon__cross" viewBox="0 0 24 24"><g fill="none"><path d="M7.52 6.47a.75.75 0 0 0-1.06 1.06l1.06-1.06Zm8.94 11.06a.75.75 0 1 0 1.06-1.06l-1.06 1.06Zm-10-10 10 10 1.06-1.06-10-10-1.06 1.06Z" fill="#070200"/><path d="M6.46 16.47a.75.75 0 1 0 1.06 1.06l-1.06-1.06Zm11.06-8.94a.75.75 0 0 0-1.06-1.06l1.06 1.06Zm-10 10 10-10-1.06-1.06-10 10 1.06 1.06Z" fill="#070200"/></g></symbol><symbol id="icon__floor" viewBox="0 0 120 120"><g fill="none"><path d="M90.984 30.852H41.97a7.094 7.094 0 0 0-10.878-4.815 7.094 7.094 0 0 0-3.223 5.949v56.028a7.11 7.11 0 0 0 7.103 7.104h56.014c.626 0 1.134-.508 1.134-1.133v-61.97a1.135 1.135 0 0 0-1.134-1.163h-.002ZM30.12 31.986a4.839 4.839 0 0 1 4.832-5.028 4.836 4.836 0 0 1 4.834 5.028v50.83a7.07 7.07 0 0 0-4.83-1.905h-.944c-.151 0-.303.022-.453.068l-.265.06-.408.106-.264.099c-.127.037-.25.082-.371.135l-.264.12-.348.167-.257.144-.317.196-.242.174a4.246 4.246 0 0 0-.302.22l-.227.196c-.053.045-.121.09-.174.143V31.986ZM89.82 92.85H34.972a4.84 4.84 0 0 1-4.844-4.832 4.834 4.834 0 0 1 4.834-4.841 4.837 4.837 0 0 1 4.84 4.836 1.133 1.133 0 0 0 2.266 0V33.12h47.8l-.047 59.732Z" fill="#F1A000"/><path d="M48.566 87.833h34.808c.626 0 1.134-.507 1.134-1.134V57.733c0-.626-.508-1.133-1.133-1.133a7.05 7.05 0 0 1-7.052-7.051 1.133 1.133 0 0 0-2.267 0 9.323 9.323 0 0 0 8.185 9.227v26.791H67.127v-4.096a1.134 1.134 0 1 0-2.267 0v4.096H49.744V64.12H64.86v4.096a1.133 1.133 0 0 0 2.268 0V57.734a1.133 1.133 0 0 0-2.267 0v4.096H49.744V40.4H64.86v4.095a1.133 1.133 0 0 0 2.268 0V40.4H82.24v4.096a1.134 1.134 0 0 0 2.267 0v-5.23c0-.625-.508-1.133-1.133-1.133H48.567c-.626 0-1.134.508-1.134 1.133v47.437c0 .627.508 1.134 1.134 1.134v-.003Z" fill="#F1A000"/></g></symbol><symbol id="icon__keys" viewBox="0 0 120 120"><g fill="none"><path d="M51.688 83.36a1.124 1.124 0 0 0-1.602 0l-.983.983-.982-.983a1.132 1.132 0 1 0-1.587 1.58l.982.981-.982.983a1.124 1.124 0 0 0 0 1.602c.443.442 1.16.442 1.602 0l.982-.982.983.982a1.134 1.134 0 0 0 1.937-.8c0-.302-.12-.59-.335-.802l-.982-.982.967-.983a1.125 1.125 0 0 0 0-1.579ZM80.405 39.483c.442.443 1.16.443 1.602 0l2.176-2.154 2.177 2.184c.213.212.5.332.801.333a1.142 1.142 0 0 0 .801-1.972l-2.177-2.177 2.177-2.146a1.127 1.127 0 0 0 0-1.602 1.142 1.142 0 0 0-1.602 0l-2.177 2.146L82 31.91a1.14 1.14 0 0 0-1.602 0 1.127 1.127 0 0 0 .008 1.64l2.177 2.184-2.177 2.138a1.136 1.136 0 0 0 0 1.61ZM35.879 68.654a1.133 1.133 0 0 0-1.421.755l-3.854 12.213a1.133 1.133 0 0 0 .756 1.42 1.148 1.148 0 0 0 1.42-.703l3.854-12.227a1.135 1.135 0 0 0-.755-1.458ZM72.651 62.94a5.587 5.587 0 0 0 .953 4.194l4.904 6.967c.18.249.452.414.756.462a.86.86 0 0 0 .196 0c.233 0 .46-.071.65-.205l7.398-5.207a1.141 1.141 0 0 0 .242-1.594l-4.904-6.968a5.636 5.636 0 0 0-7.89-1.315 5.564 5.564 0 0 0-2.305 3.665Zm3.665-1.83v.001a3.37 3.37 0 0 1 4.678.816l4.248 6.046-5.547 3.892-4.248-6.046a3.31 3.31 0 0 1-.566-2.501 3.397 3.397 0 0 1 1.435-2.207Z" fill="#F1A000"/><path d="M94.937 70.104 79.422 48.067a1.126 1.126 0 0 0-1.125-.469l-5.925 1.066a17.887 17.887 0 1 0-35.133-4.746v.884c-.553.183-1.091.408-1.61.673a11.797 11.797 0 0 0-5.026 15.915c.41.78.905 1.512 1.474 2.185L25.01 86.027a3.267 3.267 0 0 0 .226 2.509l1.996 3.74v.001a3.25 3.25 0 0 0 2.894 1.73 3.194 3.194 0 0 0 1.451-.34l3.779-1.92a3.28 3.28 0 0 0 1.632-1.919l.56-1.783a3.246 3.246 0 0 0-.704-3.174.96.96 0 0 1-.211-.96.974.974 0 0 1 .755-.672 3.245 3.245 0 0 0 2.396-2.192l1.663-5.29a3.249 3.249 0 0 0-.703-3.174.96.96 0 0 1-.211-.96c.109-.344.4-.6.755-.665a3.257 3.257 0 0 0 2.396-2.199l.445-1.413a11.827 11.827 0 0 0 7.444-5.91c.783.161 1.576.27 2.373.325l-2.916 5.041c-.22.382-.197.858.06 1.217l15.507 22.03c.218.313.58.495.96.483.234 0 .461-.074.65-.212l4.413-3.113L80.02 82l14.638-10.316a1.136 1.136 0 0 0 .28-1.58ZM41.47 68.08a.99.99 0 0 1-.755.665 3.258 3.258 0 0 0-1.693 5.373c.26.262.353.646.242.998l-1.663 5.29a.974.974 0 0 1-.756.672 3.251 3.251 0 0 0-1.692 5.373.99.99 0 0 1 .21.96l-.558 1.784c-.085.25-.264.459-.499.582l-3.779 1.911a.99.99 0 0 1-1.314-.415l-2.003-3.78a1 1 0 0 1-.068-.755l6.786-21.446a11.988 11.988 0 0 0 3.62 1.889c1.144.36 2.337.545 3.537.544h.506l-.12.355Zm-3.242-3.068a9.527 9.527 0 0 1-6.203-11.96 9.531 9.531 0 0 1 4.692-5.58c.271-.144.551-.258.831-.379.202 1.123.511 2.224.922 3.288a4.535 4.535 0 0 0 2.109 7.255c.44.14.898.211 1.36.211a4.535 4.535 0 0 0 1.367-8.872 4.489 4.489 0 0 0-2.954.068 15.49 15.49 0 0 1-.643-2.547c.463-.069.93-.102 1.398-.098a9.528 9.528 0 1 1-2.856 18.62l-.023-.006Zm1.459-12.091v-.001a17.77 17.77 0 0 0 1.859 2.6 1.514 1.514 0 0 1-.31-.068 2.267 2.267 0 0 1-1.55-2.509v-.022Zm4.398 1.05a2.24 2.24 0 0 1-.31.612 15.657 15.657 0 0 1-2.494-3.469c.206-.065.42-.1.635-.106.234 0 .466.039.688.114.577.177 1.057.58 1.33 1.118a2.19 2.19 0 0 1 .151 1.753v-.022Zm11.041 5.532a15.7 15.7 0 0 1-2.728-.257 11.781 11.781 0 0 0-12.847-15.04v-.34a15.629 15.629 0 1 1 30.273 5.215l-9.151 1.61a1.149 1.149 0 0 0-.756.552l-4.715 8.312-.076-.052Zm17.118 25.187-9.75-13.844 5.548-3.907L77.79 80.79l-5.547 3.9Zm7.406-5.206L69.244 64.707a1.14 1.14 0 0 0-1.58-.28l-7.398 5.215c-.255.177-.424.45-.469.756-.038.29.035.584.204.824l10.383 14.774-2.584 1.821-14.441-20.524 3.166-5.57a17.803 17.803 0 0 0 6.159-1.625 3.372 3.372 0 0 0 5.358-.788 3.37 3.37 0 1 0-6.326-1.26 15.673 15.673 0 0 1-3.778 1.217l3.658-6.439 9.416-1.647 6.975-1.224L92.43 70.482l-12.78 9ZM66.046 58.058a1.067 1.067 0 0 1-1.058.748c.371-.242.734-.484 1.058-.748Z" fill="#F1A000"/></g></symbol><symbol id="icon__mail" viewBox="0 0 24 24"><g fill="none"><path clip-rule="evenodd" d="M3 6.8c0 .6.3 1.1.8 1.5l6 4.1c1.4.9 3.1.9 4.5 0l6-4c.4-.5.7-1 .7-1.6 0-1-.8-1.8-1.8-1.8H4.8C3.8 5 3 5.8 3 6.8Z"/><path d="M3 7v10c0 1.1.9 2 2 2h14c1.1 0 2-.9 2-2V7M3.588 18.412l6.094-6.094M14.36 12.36l6.052 6.052"/></g></symbol><symbol id="icon__next" viewBox="0 0 48 48"><g fill="none"><rect width="48" height="48" rx="24" transform="matrix(-1 0 0 1 48 0)" fill="#fff"/><path fill-rule="evenodd" clip-rule="evenodd" d="m26.707 24-7.071-7.071 2.829-2.828 9.899 9.9-9.9 9.899-2.828-2.829 7.071-7.07Z" fill="#F1A000"/></g></symbol><symbol id="icon__phone" viewBox="0 0 24 24"><g fill="none"><path d="M9.499 2.996v1.8a.557.557 0 0 0 .5.601h4.002a.557.557 0 0 0 .5-.6v-1.8M10 18.003h4"/><path clip-rule="evenodd" d="M16.002 21.004H7.998a2 2 0 0 1-2-2.001V4.997a2 2 0 0 1 2-2h8.004a2 2 0 0 1 2 2v14.006a2 2 0 0 1-2 2Z"/></g></symbol><symbol id="icon__play" viewBox="0 0 69 69"><g fill="none"><path d="M69 34.5C69 53.554 53.554 69 34.5 69 15.446 69 0 53.554 0 34.5 0 15.446 15.446 0 34.5 0 53.554 0 69 15.446 69 34.5Z" fill="#fff"/><path d="M29.53 21.684c-2-1.185-4.53.257-4.53 2.581v21.47c0 2.325 2.53 3.766 4.53 2.581l18.115-10.734c1.96-1.162 1.96-4 0-5.162L29.529 21.684Z" fill="#F1A000"/></g></symbol><symbol id="icon__prev" viewBox="0 0 48 48"><g fill="none"><rect width="48" height="48" rx="24" fill="#fff"/><path fill-rule="evenodd" clip-rule="evenodd" d="m21.293 24 7.071-7.071-2.829-2.828-9.899 9.9 9.9 9.899 2.828-2.829-7.071-7.07Z" fill="#F1A000"/></g></symbol><symbol id="icon__project"><g fill="none"><path d="M6.858 6.74A.947.947 0 0 0 6 7.687v24.626c0 .523.424.947.947.947h23.679a.947.947 0 0 0 .947-.947v-9.99l4.425-3.98a.954.954 0 1 0-1.273-1.421l-4.735 4.262a.948.948 0 0 0-.311.71v2.842h-4.262a.948.948 0 1 0 0 1.894h4.262v4.736h-10.42v-4.262a.947.947 0 1 0-1.894 0v4.262H7.894v-8.998h10.419a.947.947 0 0 0 .947-.947v-2.886l4.425-3.981a.947.947 0 0 0-.607-1.672.948.948 0 0 0-.666.251l-4.736 4.262a.949.949 0 0 0-.31.71v2.369H7.893V8.634h9.471v4.263a.95.95 0 0 0 .948.96.948.948 0 0 0 .947-.96V8.635h10.419v5.21a.946.946 0 1 0 1.894 0V7.687a.947.947 0 0 0-.947-.948H6.947a1.12 1.12 0 0 0-.088 0Z" fill="#F1A000"/></g></symbol><symbol id="icon__roller" viewBox="0 0 120 120"><g fill="none"><path d="M51.045 50.517a9.417 9.417 0 1 0 9.416 9.416 9.423 9.423 0 0 0-9.416-9.416Zm0 16.565a7.15 7.15 0 1 1 7.149-7.15 7.158 7.158 0 0 1-7.15 7.15Z" fill="#F1A000"/><path d="M94.007 63.884H73.165v-3.953a22.009 22.009 0 0 0-2.146-9.498l3.022-3.862a5.857 5.857 0 0 0-.31-7.557 26.5 26.5 0 0 0-4.806-4.15 5.69 5.69 0 0 0-4.322-.853 5.855 5.855 0 0 0-3.779 2.516l-1.829 2.766a22.043 22.043 0 0 0-7.95-1.511 22.141 22.141 0 0 0-22.09 21.017h-2.962c-.626 0-1.134.507-1.134 1.133a26.207 26.207 0 0 0 26.186 26.185c.625 0 1.133-.507 1.133-1.134v-2.932h11.215a5.195 5.195 0 0 0 5.07 4.066h1.406a3.302 3.302 0 0 0 3.295-3.295v-5.6h19.71v3.696a1.134 1.134 0 0 0 2.267 0v-15.87a1.132 1.132 0 0 0-1.133-1.164h-.001ZM65.53 80.92c0-.627-.508-1.134-1.134-1.134h-12.22v-1.028c0-.529-.368-.987-.884-1.103a24.098 24.098 0 0 1-17.97-17.971 1.134 1.134 0 0 0-1.104-.884h-.998a19.884 19.884 0 0 1 19.823-18.72 19.654 19.654 0 0 1 7.814 1.61c.063.034.129.062.197.084a19.998 19.998 0 0 1 9.582 8.977l.083.16a19.809 19.809 0 0 1 2.177 9.022v22.891a1.029 1.029 0 0 1-1.028 1.028h-1.406a2.931 2.931 0 0 1-2.932-2.932ZM49.91 82.022v1.806a23.955 23.955 0 0 1-22.754-22.762h4.171A26.447 26.447 0 0 0 49.91 79.649v2.373Zm12.847-44.255a3.603 3.603 0 0 1 2.268-1.511c.907-.185 1.851 0 2.622.513a24.467 24.467 0 0 1 4.398 3.779 3.594 3.594 0 0 1 .197 4.648l-2.419 3.075a22.265 22.265 0 0 0-8.736-8.033l1.67-2.47Zm10.407 37.19v-8.805H76.3v2.063a1.133 1.133 0 0 0 2.267 0v-2.063h3.348v4.429a1.133 1.133 0 0 0 2.267 0v-4.429h3.317v2.063a1.134 1.134 0 0 0 2.268 0v-2.063h3.105v8.804H73.164Z" fill="#F1A000"/></g></symbol><symbol id="icon__sign" viewBox="0 0 120 120"><g fill="none"><path d="M35.818 38.327h13.036a1.134 1.134 0 0 0 0-2.267H35.818a1.133 1.133 0 1 0 0 2.267ZM35.818 45.702h5.29a1.133 1.133 0 1 0 0-2.267h-5.29a1.134 1.134 0 1 0 0 2.267ZM34.813 51.937c0 .626.507 1.134 1.134 1.134h35.518a1.134 1.134 0 0 0 0-2.267H35.947c-.627 0-1.134.507-1.134 1.133ZM71.48 58.18H35.962a1.134 1.134 0 1 0 0 2.266H71.48a1.134 1.134 0 0 0 0-2.267ZM35.946 67.822h19.391a1.134 1.134 0 1 0 0-2.267H35.946a1.134 1.134 0 1 0 0 2.267Z" fill="#F1A000"/><path d="m91.99 61.02-2.1-2.094.414-.438a6.418 6.418 0 0 0 1.92-4.08 5.018 5.018 0 0 0-5.494-5.502 6.492 6.492 0 0 0-4.059 1.942l-1.246 1.217-1.686 1.685v-9.893a1.067 1.067 0 0 0 0-.218.952.952 0 0 0-.09-.265.244.244 0 0 0 0-.06.904.904 0 0 0-.174-.243l-17.963-17.88a.746.746 0 0 0-.242-.174h-.068a1.024 1.024 0 0 0-.264-.098l-.182-.06H28.813c-.626 0-1.134.507-1.134 1.133v68.014c0 .626.508 1.133 1.134 1.133h49.793c.626 0 1.134-.507 1.134-1.133V69.067l8.547-8.54 1.292 1.293-5.078 5.086a1.13 1.13 0 0 0 0 1.602c.442.442 1.16.442 1.602 0l5.887-5.88a1.148 1.148 0 0 0 0-1.61v.002Zm-12.25 4.86-2.268 2.266-12.227 12.257-4.489-4.488 16.716-16.67 4.753-4.755 4.459 4.46-6.945 6.93ZM59.093 82.057l.423-4.209 3.779 3.779-4.202.43Zm24.734-29.192.415-.416c1.512-1.512 3.704-1.7 4.935-.476 1.232 1.224 1.05 3.446-.46 4.935l-.417.416-4.473-4.46ZM75.87 42.724H61.874V28.728L75.87 42.724Zm1.602 50.15H29.946V27.126h29.662v16.731c0 .627.507 1.134 1.133 1.134h16.731v11.026L58.384 75.115l-.96.96-.634 6.37c-2.608.597-4.996 1.821-7.467 2.85-.348.142-.695.279-1.05.407-.174.068-.491.121-.756.212 0-.356.076-.703.121-1.05v-.001c.24-1.826.583-3.639 1.028-5.426a1.14 1.14 0 0 0-1.89-1.104 16.34 16.34 0 0 0-2.373 2.827 16.509 16.509 0 0 0-.793-3.023 17.824 17.824 0 0 0-2.025-3.892c-.695-.998-1.648-2.267-3.023-1.512-1.11.643-1.768 2.343-2.267 3.462a15.478 15.478 0 0 0-1.277 4.247 3.531 3.531 0 0 0 1.292 3.476 3.02 3.02 0 0 0 3.257.174c1.24-.755.098-2.72-1.149-1.957-.582.355-1.11-.257-1.179-.801a6.442 6.442 0 0 1 .499-2.593c.301-.943.69-1.857 1.164-2.728.06-.113.34-.514.544-.846.099.12.204.234.272.332a14.901 14.901 0 0 1 2.532 10.52c-.212 1.398 1.851 2.056 2.184.597a13.01 13.01 0 0 1 1.11-3.023 54.763 54.763 0 0 0-.203 1.549c-.099.869-.31 1.851.34 2.562a2.268 2.268 0 0 0 2.199.446 31.889 31.889 0 0 0 5.116-2.085 21.456 21.456 0 0 1 5.683-1.754l6.378-.643 12.416-12.332v21.538Z" fill="#F1A000"/></g></symbol><symbol id="icon__social_tg" viewBox="0 0 24 24"><g fill="none"><path d="M11.795 16.906 9.73 18.915a.666.666 0 0 1-1.102-.284l-1.376-4.53"/><path d="m14.104 10.927-3.917 3.535a.843.843 0 0 0 .066 1.305l5.378 3.973a.904.904 0 0 0 1.422-.54l2.641-12.447a.775.775 0 0 0-1.037-.884L3.142 11.853a.516.516 0 0 0 .032.975L7.251 14.1"/></g></symbol><symbol id="icon__social_wa" viewBox="0 0 24 24"><g fill="none"><path clip-rule="evenodd" d="M18.204 5.762a8.665 8.665 0 0 0-6.167-2.556c-4.807 0-8.718 3.909-8.719 8.714a8.7 8.7 0 0 0 1.163 4.357l-1.237 4.516 4.622-1.212a8.717 8.717 0 0 0 4.167 1.061h.004c4.805 0 8.716-3.91 8.718-8.715a8.662 8.662 0 0 0-2.551-6.165Z"/><path d="m13.095 13.56.406-.403c.373-.37.963-.417 1.393-.115.416.292.792.554 1.142.798.556.386.623 1.178.144 1.656l-.359.359M8.145 8.179l.359-.359a1.083 1.083 0 0 1 1.656.144c.243.35.505.726.798 1.142a1.09 1.09 0 0 1-.115 1.393l-.403.406M15.821 15.855c-1.481 1.474-3.97.222-5.935-1.744"/><path d="M9.888 14.114C7.923 12.148 6.671 9.66 8.145 8.179M10.44 10.905a8.686 8.686 0 0 0 1.19 1.463l.002.002c.462.462.96.871 1.463 1.19"/></g></symbol><symbol id="icon__wall" viewBox="0 0 120 120"><g fill="none"><path d="M94.007 58.806c.626 0 1.133-.507 1.133-1.133V46.337a1.132 1.132 0 0 0-1.133-1.149h-12.47V34.752c0-.626-.507-1.133-1.133-1.133H25.992c-.626 0-1.134.507-1.134 1.133v11.336a1.136 1.136 0 0 0 1.134 1.156h12.47v9.295h-12.47c-.626 0-1.134.508-1.134 1.134v11.396c.02.611.523 1.096 1.134 1.096h12.47v10.24c0 .626.507 1.133 1.133 1.133h34.09l.816 2.003a4.532 4.532 0 0 0 2.478 2.494 4.519 4.519 0 0 0 3.515.03 4.602 4.602 0 0 0 2.857-4.534h10.655c.623 0 1.13-.503 1.133-1.126V69.069c0-.626-.507-1.134-1.133-1.134h-12.47v-9.068l12.47-.06ZM92.873 47.47v9.069H72.96l2.811-1.141a3.225 3.225 0 0 0 1.995-2.57 3.06 3.06 0 0 0 0-.453 3.212 3.212 0 0 0-1.262-2.554l-3.022-2.365 19.391.014ZM79.648 83.941a2.334 2.334 0 0 1-3.023-1.27l-.469-1.14-.922-2.268-3.68-8.985v-.113a2.337 2.337 0 0 1 .046-1.678c.096-.214.224-.413.378-.59.23-.29.53-.517.87-.665.278-.112.575-.171.876-.173.69.002 1.346.309 1.79.839a2.2 2.2 0 0 1 .37.62l.673 1.647 3.703 9.068.673 1.647c.077.2.125.408.143.62a2.32 2.32 0 0 1-1.428 2.441ZM66.801 67.898H54.332v-9.069h3.84-.001a3.22 3.22 0 0 0 3.06 2.267 3.377 3.377 0 0 0 1.24-.242l4.92-2.01h.755l2.812 6.9a4.53 4.53 0 0 0-1.512 1.904 1.86 1.86 0 0 0-.106.287l-2.539-.037Zm-5.094-20.654.28-2.056v-.211l.212-1.512a.983.983 0 0 1 1.58-.665l2.795 2.177.272.211.975.756 1.655 1.284.28.212 5.358 4.172c.24.177.383.457.385.755v.136a.983.983 0 0 1-.604.756l-5.6 2.267-.915-2.267a1.134 1.134 0 0 0-2.101.854l.915 2.267-.264.106-1.285.522-4.028 1.707a.987.987 0 0 1-1.36-.899.935.935 0 0 1 0-.144l.15-1.133 1.255-9.069.045-.226Zm17.563-2.267H70.3l-5.1-3.968h-.001a3.23 3.23 0 0 0-3.219-.446l-.257.12A3.182 3.182 0 0 0 60 43.134l-.257 1.843h-5.41V35.91H79.27v9.068Zm-52.144 0v-9.069h24.938v9.069H27.126Zm13.603 2.479h18.66l-1.248 9.067h-17.38l-.032-9.067ZM27.126 67.897V58.83h24.938v9.068H27.126Zm13.603 2.267h24.938v9.069H40.73v-9.069Zm27.206 9.069v-9.069h1.247c.058.33.15.655.272.968l3.31 8.116-4.829-.015Zm24.938-9.069v9.069H82.671l-3.703-9.069h13.905ZM79.27 67.897h-1.194l-.098-.242a4.588 4.588 0 0 0-4.889-2.81l-2.456-6.047h8.638v9.1Z" fill="#F1A000"/></g></symbol><symbol id="img__logo" viewBox="0 0 160 120"><g fill="none"><path fill="#fff" d="M0 0h160v120H0z"/><path d="M109.396 55.914h7.682l5.661 5.661 18.996-19h6.659l-22.94 23.967v8.377h-5.43v-8.377l-8.146-8.146v2.948h-8.144c-1.121 0-2.08.399-2.878 1.196-.796.796-1.194 1.755-1.194 2.877 0 1.12.398 2.08 1.194 2.877.798.797 1.757 1.195 2.878 1.195h2.714v-1.357h-2.714v-5.43h8.144v12.217h-8.144c-2.627 0-4.865-.927-6.718-2.785-1.858-1.853-2.784-4.09-2.784-6.717 0-2.623.927-4.865 2.784-6.718 1.853-1.853 4.091-2.784 6.718-2.784h5.663l-.001-.001ZM32.673 87.537c.936 0 1.762-.468 2.2-1.206l-.87-.505c-.24.446-.745.724-1.33.724-.497 0-.898-.154-1.205-.468-.3-.314-.453-.716-.453-1.206 0-.497.153-.898.453-1.212.307-.315.708-.468 1.205-.468.585 0 1.075.27 1.33.73l.87-.504c-.438-.738-1.272-1.206-2.2-1.206-.767 0-1.403.257-1.907.768-.504.504-.753 1.14-.753 1.892 0 .753.25 1.382.753 1.893.504.511 1.14.767 1.907.767ZM35.092 82.32v.963h1.374v4.151h1.008v-4.15h1.381v-.965h-3.763Z" fill="#070200"/><path fill-rule="evenodd" clip-rule="evenodd" d="M39.418 82.32v5.114h1.009v-1.68h.898c.49 0 .906-.168 1.242-.497.337-.33.505-.739.505-1.22 0-.483-.168-.893-.505-1.221a1.714 1.714 0 0 0-1.242-.497h-1.907Zm1.009 2.49v-1.548h.898c.432 0 .745.328.745.775 0 .438-.313.773-.745.773h-.898ZM47.997 86.77c.519-.52.775-1.148.775-1.894 0-.745-.256-1.373-.775-1.885a2.564 2.564 0 0 0-1.885-.775c-.738 0-1.367.257-1.885.775-.512.512-.767 1.14-.767 1.885 0 .746.255 1.374.767 1.893a2.587 2.587 0 0 0 1.885.767c.738 0 1.367-.256 1.885-.767Zm-3.062-.688c-.314-.314-.475-.716-.475-1.206s.161-.89.475-1.205c.315-.314.71-.475 1.177-.475.468 0 .862.16 1.176.475.315.314.476.716.476 1.205 0 .49-.161.892-.476 1.206-.314.314-.708.468-1.176.468-.468 0-.862-.154-1.177-.468Z" fill="#070200"/><path d="M53.449 87.434V82.32h-.768l-2.192 3.127V82.32H49.48v5.115h.767l2.192-3.12v3.12h1.009ZM54.019 82.32v.963h1.374v4.151H56.4v-4.15h1.38v-.965H54.02ZM59.353 85.322h1.937v-.95h-1.937v-1.089h2.12v-.964h-3.128v5.115h3.164v-.964h-2.156v-1.148ZM61.823 87.434c.519.051.928-.036 1.3-.328.38-.293.607-.906.607-1.791v-2.032h1.476v4.151h1.001V82.32H62.73v3.025c0 .965-.3 1.243-.906 1.155v.935Z" fill="#070200"/><path fill-rule="evenodd" clip-rule="evenodd" d="M68.166 84v-1.68h-1.008v5.114h1.907c.49 0 .906-.168 1.242-.497.336-.328.504-.737.504-1.22 0-.482-.168-.891-.504-1.22A1.716 1.716 0 0 0 69.065 84h-.9Zm0 2.492v-1.55h.899c.431 0 .745.337.745.775 0 .446-.314.775-.745.775h-.9Z" fill="#070200"/><path d="M74.377 84.35h-1.9v-2.03h-1.008v5.114h1.008v-2.12h1.9v2.12h1.002V82.32h-1.002v2.032Z" fill="#070200"/><path fill-rule="evenodd" clip-rule="evenodd" d="m80.713 87.434-1.798-5.115h-1.25l-1.79 5.115h1.09l.306-.92h2.039l.306.92h1.097Zm-2.419-3.953.701 2.09h-1.403l.702-2.09ZM82.832 82.32c-.475 0-.877.167-1.206.496a1.642 1.642 0 0 0-.497 1.198c0 .68.454 1.3 1.103 1.535l-1.249 1.885h1.133l1.177-1.776h.577v1.776h1.008V82.32h-2.046Zm0 2.454c-.38 0-.694-.343-.694-.76 0-.416.314-.752.694-.752h1.038v1.512h-1.038Z" fill="#070200"/><path d="m89.687 84.804 1.892-2.485h-1.162l-1.754 2.258v-2.258h-1.008v5.115h1.008v-2.397l1.827 2.397h1.162l-1.965-2.63Z" fill="#070200"/><path fill-rule="evenodd" clip-rule="evenodd" d="M96.015 86.77c.519-.52.775-1.148.775-1.894 0-.745-.256-1.373-.775-1.885a2.566 2.566 0 0 0-1.886-.775c-.738 0-1.366.257-1.885.775-.511.512-.767 1.14-.767 1.885 0 .746.256 1.374.767 1.893.52.511 1.147.767 1.885.767s1.367-.256 1.886-.767Zm-3.062-.688c-.314-.314-.475-.716-.475-1.206s.161-.89.475-1.205a1.603 1.603 0 0 1 1.176-.475c.468 0 .863.16 1.177.475.315.314.475.716.475 1.205 0 .49-.16.892-.475 1.206-.314.314-.709.468-1.177.468-.467 0-.862-.154-1.176-.468Z" fill="#070200"/><path d="m101.466 82.32-1.461 2.418-1.469-2.419h-1.038v5.115h1.009v-3.31l1.439 2.368h.117l1.44-2.375v3.317h1.001V82.32h-1.038ZM103.454 82.32v5.114h1.008v-4.15h1.805v4.15h1.009V82.32h-3.822Z" fill="#070200"/><path fill-rule="evenodd" clip-rule="evenodd" d="m112.61 87.434-1.798-5.115h-1.249l-1.79 5.115h1.088l.307-.92h2.039l.307.92h1.096Zm-2.419-3.953.702 2.09h-1.403l.701-2.09Z" fill="#070200"/><path d="M116.015 84.35h-1.9v-2.03h-1.008v5.114h1.008v-2.12h1.9v2.12h1.001V82.32h-1.001v2.032ZM121.935 87.434V82.32h-.768l-2.192 3.127V82.32h-1.009v5.115h.768l2.192-3.12v3.12h1.009Z" fill="#070200"/><path fill-rule="evenodd" clip-rule="evenodd" d="M124.448 82.32c-.474 0-.877.167-1.206.496a1.638 1.638 0 0 0-.496 1.198c0 .68.452 1.3 1.103 1.535l-1.25 1.885h1.133l1.177-1.776h.577v1.776h1.008V82.32h-2.046Zm0 2.454c-.38 0-.694-.343-.694-.76 0-.416.314-.752.694-.752h1.038v1.512h-1.038Z" fill="#070200"/><path d="M37.215 61.344v-5.43H20.926V74.92h16.29v-5.43h-10.86v-1.357H34.5v-5.43h-8.145v-1.358h10.86ZM44.003 65.185v9.734h-5.43V52.074L52.15 65.648v-9.733h5.43V78.76L44.002 65.185ZM75.226 61.344v-5.43h-16.29V74.92h16.29v-5.43h-10.86v-1.357h8.145v-5.43h-8.145v-1.358h10.86Z" fill="#070200"/><path fill-rule="evenodd" clip-rule="evenodd" d="M86.763 55.915c1.686 0 3.122.597 4.318 1.793 1.195 1.195 1.793 2.63 1.793 4.317 0 1.682-.598 3.123-1.793 4.314a6.186 6.186 0 0 1-1.71 1.237l7.343 7.343h-7.681l-7.02-7.02v7.02h-5.429V55.915h10.179Zm-4.75 5.43v1.357h4.75c.19 0 .352-.065.481-.195a.65.65 0 0 0 .2-.482.644.644 0 0 0-.2-.482.644.644 0 0 0-.481-.199h-4.75Z" fill="#070200"/><path d="m119.934 36.988-1.679 1.992L78.32 20.288 26.521 44.414v8.077H23.99v-9.69l54.321-25.3c7.148 3.333 14.585 6.82 22.006 10.3 6.625 3.107 13.237 6.208 19.618 9.187ZM132.522 79.448v15.757H23.989V79.448h2.532v13.224H129.99V79.448h2.532ZM128.085 42.566l9.26.01-15.894 15.876 7.489-15.5h-9.139l16.193-19.044-7.909 18.658Z" fill="#F1A000"/></g></symbol>
</svg>