<svg xmlns="http://www.w3.org/2000/svg" xmlns:xlink="http://www.w3.org/1999/xlink"><symbol id="icon__apartments" viewBox="0 0 120 120"><g fill="none"><path d="M54.28 82.127h-2.873c-.626 0-1.133.508-1.133 1.134v5.29c0 .626.507 1.133 1.133 1.133h2.872c.626 0 1.133-.507 1.133-1.133v-5.29c0-.626-.507-1.134-1.133-1.134Zm-1.135 5.29h-.604v-3.023h.604v3.023ZM84.56 82.127h-2.879c-.626 0-1.133.508-1.133 1.134v5.29c0 .626.507 1.133 1.133 1.133h2.88c.626 0 1.133-.507 1.133-1.133v-5.29c0-.626-.507-1.134-1.134-1.134Zm-1.134 5.29h-.612v-3.023h.613v3.023ZM54.28 68.027h-2.873c-.626 0-1.133.507-1.133 1.133v5.29c0 .626.507 1.133 1.133 1.133h2.872c.626 0 1.133-.507 1.133-1.133v-5.29a1.134 1.134 0 0 0-1.133-1.133Zm-1.135 5.29h-.604v-3.023h.604v3.023ZM64.376 68.027H61.51a1.196 1.196 0 0 0-.513.128 1.14 1.14 0 0 0-.62 1.005v5.29c.003.424.242.811.62 1.005.16.08.334.124.513.128h2.88c.626 0 1.133-.507 1.133-1.133v-5.29a1.133 1.133 0 0 0-1.148-1.133Zm-1.134 5.29h-.612v-3.023h.612v3.023ZM74.472 68.027h-2.88c-.625 0-1.133.507-1.133 1.133v5.29c0 .626.508 1.133 1.134 1.133h2.879a1.141 1.141 0 0 0 1.134-1.133v-5.29a1.135 1.135 0 0 0-1.134-1.133Zm-1.134 5.29h-.612v-3.023h.612v3.023ZM84.56 68.027h-2.879c-.626 0-1.133.507-1.133 1.133v5.29c0 .626.507 1.133 1.133 1.133h2.88c.626 0 1.133-.507 1.133-1.133v-5.29a1.135 1.135 0 0 0-1.134-1.133Zm-1.134 5.29h-.612v-3.023h.613v3.023Z" fill="#F1A000"/><path d="M94.007 92.874h-2.698V60.591c0-.626-.507-1.134-1.134-1.134h-4.48V30.392a1.112 1.112 0 0 0-.462-.907 1.133 1.133 0 0 0-1.005-.174l-22.112 6.801V25.993c0-.626-.508-1.133-1.134-1.133H29.825c-.627 0-1.134.507-1.134 1.134v66.88h-2.698a1.134 1.134 0 0 0 0 2.267h68.014a1.133 1.133 0 0 0 0-2.267ZM36.708 27.126v4.323h-1.511v-4.3l1.511-.023Zm3.78 0v4.323h-1.512v-4.3l1.511-.023Zm3.778 0v4.323h-1.512v-4.3l1.512-.023Zm3.779 0v4.323h-1.512v-4.3l1.512-.023Zm3.778 0v4.323h-1.511v-4.3l1.511-.023Zm3.78 0v4.323H54.09v-4.3l1.512-.023Zm4.246 0v4.323h-1.98v-4.3l1.98-.023Zm10.203 17.381v6.348h-4.534v-6.348h4.534Zm6.8 0v6.348H72.32v-6.348h4.534Zm6.576 0v6.348h-4.309v-6.347l4.309-.001Zm-52.47 27.018h1.972v5.29h-1.972v-5.29Zm0-15.115h25.695v3.023H45.9c-.627 0-1.134.507-1.134 1.134v8.69H30.959V56.41Zm39.093 3.023h-4.534v-6.348h4.534v6.348Zm-6.802 0h-4.307v-6.348h4.307v6.348ZM35.198 71.524h1.511v5.29h-1.511v-5.29Zm3.779 0h1.511v5.29h-1.511v-5.29Zm3.778 0h2.01v5.29h-2.01v-5.29Zm34.098-12.091H72.32v-6.348h4.534v6.348ZM63.25 50.818h-4.308V44.47h4.307l.001 6.348Zm-7.648 3.325H54.09v-5.29h1.512v5.29Zm-3.779 0h-1.512v-5.29h1.512v5.29Zm-3.779 0h-1.511v-5.29h1.511v5.29Zm-3.778 0h-1.512v-5.29h1.512v5.29Zm-3.78 0h-1.51v-5.29h1.51v5.29Zm-3.778 0h-1.511v-5.29h1.511v5.29Zm-3.779 0h-1.971v-5.29h1.972v5.29Zm-1.972 24.939h13.808V92.85H30.958V79.08ZM62.116 92.85h-1.444v-8.457h6.235v8.456h-4.791Zm7.058-8.457h6.227v8.456h-6.227v-8.456Zm19.867 8.456H77.668v-9.59c0-.625-.508-1.133-1.134-1.133H59.538a1.09 1.09 0 0 0-.597.174c-.333.206-.536.569-.537.96v9.59H47.068V61.721h41.974V92.85Zm-5.615-33.395h-4.308v-6.348h4.308v6.348Zm0-17.231H58.941v-2.796l.907-.272 1.133-.317 1.134-.348 21.311-6.567v10.3Zm-52.47-15.076h1.973v4.323h-1.972v-4.323Zm3.107 6.59h25.785v3.022l-2.373.756a1.135 1.135 0 0 0-.8 1.088v7.98H30.98V33.739h3.083Z" fill="#F1A000"/></g></symbol><symbol id="icon__arrow" viewBox="0 0 40 40"><g fill="none"><path d="M1 19a1 1 0 1 0 0 2v-2Zm38.707 1.707a1 1 0 0 0 0-1.414l-6.364-6.364a1 1 0 0 0-1.414 1.414L37.586 20l-5.657 5.657a1 1 0 0 0 1.414 1.414l6.364-6.364ZM1 21h38v-2H1v2Z" fill="#070200"/></g></symbol><symbol id="icon__arrow_link" viewBox="0 0 666 136"><g fill="none"><path opacity=".5" d="M6.293 134.707a1 1 0 0 0 1.414 0l6.364-6.364a1 1 0 1 0-1.414-1.414L7 132.586l-5.657-5.657a1 1 0 1 0-1.414 1.414l6.364 6.364ZM595 67H71v2h524v-2Zm63-65v2h2V2h-2ZM6 132v2h2v-2H6Zm65-65C35.102 67 6 96.102 6 132h2c0-34.794 28.206-63 63-63v-2Zm524 2c35.899 0 65-29.102 65-65h-2c0 34.794-28.206 63-63 63v2Z" fill="#070200"/></g></symbol><symbol id="icon__arrow_link_d" viewBox="0 0 560 136"><g fill="none"><path opacity=".5" d="M6.293 134.707a1 1 0 0 0 1.414 0l6.364-6.364a1 1 0 1 0-1.414-1.414L7 132.586l-5.657-5.657a1 1 0 1 0-1.414 1.414l6.364 6.364ZM489 67H71v2h418v-2Zm63-65v2h2V2h-2ZM6 132v2h2v-2H6Zm65-65C35.102 67 6 96.102 6 132h2c0-34.794 28.206-63 63-63v-2Zm418 2c35.899 0 65-29.102 65-65h-2c0 34.794-28.206 63-63 63v2Z" fill="#070200"/></g></symbol><symbol id="icon__calendar" viewBox="0 0 120 120"><g fill="none"><path d="M94.007 33.399h-6.424v-1.814c0-.605-.529-1.134-1.134-1.134-.604 0-1.133.53-1.133 1.134v1.814h-5.29v-1.814c0-.605-.53-1.134-1.135-1.134-.604 0-1.133.53-1.133 1.134v1.814h-5.29v-1.814c0-.605-.53-1.134-1.135-1.134-.604 0-1.133.53-1.133 1.134v1.814h-5.29v-1.814c0-.605-.53-1.134-1.134-1.134-.605 0-1.134.53-1.134 1.134v1.814h-5.29v-1.814c0-.605-.53-1.134-1.134-1.134-.605 0-1.134.53-1.134 1.134v1.814h-5.29v-1.814c0-.605-.53-1.134-1.134-1.134-.605 0-1.134.53-1.134 1.134v1.814h-5.29v-1.814c0-.605-.53-1.134-1.134-1.134-.605 0-1.134.53-1.134 1.134v1.814h-5.29v-1.814c0-.605-.53-1.134-1.134-1.134-.605 0-1.134.53-1.134 1.134v1.814h-6.417c-.605 0-1.134.53-1.134 1.134v53.882c0 .604.53 1.133 1.134 1.133h56.225c.075 0 .075 0 .15-.075 0 0 .076 0 .076-.075 0 0 .076 0 .076-.076.075-.075.15-.075.15-.15L94.763 77.08c.075-.076.15-.15.15-.227v-.075c.076-.076.076-.151.076-.303v-.227l.001-41.716c.151-.604-.377-1.133-.982-1.133Zm-61.591 2.267v1.814c0 .605.529 1.134 1.134 1.134.604 0 1.134-.53 1.134-1.134v-1.814h5.29v1.814c0 .605.529 1.134 1.134 1.134.604 0 1.133-.53 1.133-1.134v-1.814h5.29v1.814c0 .605.53 1.134 1.135 1.134.604 0 1.133-.53 1.133-1.134v-1.814h5.29v1.814c0 .605.53 1.134 1.134 1.134.605 0 1.134-.53 1.134-1.134v-1.814h5.29v1.814c0 .605.53 1.134 1.134 1.134.605 0 1.134-.53 1.134-1.134v-1.814h5.29v1.814c0 .605.53 1.134 1.134 1.134.605 0 1.134-.53 1.134-1.134v-1.814h5.29v1.814c0 .605.53 1.134 1.134 1.134.605 0 1.134-.53 1.134-1.134v-1.814h5.29v1.814c0 .605.53 1.134 1.134 1.134.605 0 1.134-.53 1.134-1.134v-1.814h5.29v7.33H27.131v-7.33h5.285Zm-5.29 9.522h65.747V75.19H81.916c-.605 0-1.134.529-1.134 1.134V87.28H27.127l-.001-42.093ZM83.048 85.62v-8.161h8.162l-8.162 8.162Z" fill="#F1A000"/><path d="M87.962 70.731c.605 0 1.134-.529 1.134-1.133V62.04c0-.604-.53-1.134-1.134-1.134l-7.557.001c-.605 0-1.134.53-1.134 1.134v7.557c0 .605.53 1.134 1.134 1.134h7.557Zm-6.423-7.557h5.29v5.29h-5.29v-5.29ZM80.404 58.64h7.558c.604 0 1.133-.529 1.133-1.133v-7.558c0-.604-.529-1.134-1.133-1.134l-7.558.001c-.604 0-1.133.53-1.133 1.134v7.557c0 .604.529 1.133 1.133 1.133Zm1.134-7.557h5.29v5.29h-5.29v-5.29ZM75.87 60.906h-7.558c-.605 0-1.134.53-1.134 1.134v7.557c0 .605.53 1.134 1.134 1.134h7.557c.605 0 1.134-.529 1.134-1.133V62.04c0-.604-.529-1.134-1.134-1.134Zm-1.134 7.558h-5.29v-5.29h5.29v5.29ZM75.87 48.815h-7.558c-.605 0-1.134.53-1.134 1.134v7.558c0 .604.53 1.133 1.134 1.133h7.557c.605 0 1.134-.529 1.134-1.133v-7.558c0-.604-.529-1.134-1.134-1.134Zm-1.134 7.558h-5.29v-5.29h5.29v5.29ZM63.778 48.815h-7.556c-.605 0-1.134.53-1.134 1.134v7.558c0 .604.53 1.133 1.134 1.133h7.557c.605 0 1.134-.529 1.134-1.133v-7.558c0-.604-.53-1.134-1.135-1.134Zm-1.133 7.558h-5.29v-5.29h5.29v5.29ZM51.688 48.815H44.13c-.605 0-1.134.53-1.134 1.134v7.558c0 .604.53 1.133 1.134 1.133h7.557c.605 0 1.134-.529 1.134-1.133v-7.558c0-.604-.53-1.134-1.134-1.134Zm-1.134 7.558h-5.29v-5.29h5.29v5.29ZM63.778 72.999h-7.556c-.605 0-1.134.53-1.134 1.134v7.557c0 .605.53 1.134 1.134 1.134h7.557c.605 0 1.134-.53 1.134-1.134v-7.557c0-.605-.53-1.134-1.135-1.134Zm-1.133 7.557h-5.29v-5.29h5.29v5.29ZM51.688 72.999H44.13c-.605 0-1.134.53-1.134 1.134v7.557c0 .605.53 1.134 1.134 1.134h7.557c.605 0 1.134-.53 1.134-1.134v-7.557c0-.605-.53-1.134-1.134-1.134Zm-1.134 7.557h-5.29v-5.29h5.29v5.29ZM51.688 60.906H44.13c-.605 0-1.134.53-1.134 1.134v7.557c0 .605.53 1.134 1.134 1.134h7.557c.605 0 1.134-.529 1.134-1.133V62.04c0-.604-.53-1.134-1.134-1.134Zm-1.134 7.558h-5.29v-5.29h5.29v5.29ZM39.595 72.999h-7.557c-.604 0-1.134.53-1.134 1.134v7.557c0 .605.53 1.134 1.134 1.134h7.557c.605 0 1.134-.53 1.134-1.134v-7.557c0-.605-.53-1.134-1.134-1.134Zm-1.133 7.557h-5.29v-5.29h5.29v5.29ZM39.595 60.906h-7.557c-.604 0-1.134.53-1.134 1.134v7.557c0 .605.53 1.134 1.134 1.134h7.557c.605 0 1.134-.529 1.134-1.133V62.04c0-.604-.53-1.134-1.134-1.134Zm-1.133 7.558h-5.29v-5.29h5.29v5.29ZM64.837 61.588c-.151-.303-.303-.53-.605-.605-.15-.075-.302-.075-.378-.075h-7.633c-.15 0-.302 0-.377.075-.303.15-.53.302-.605.605-.075.15-.075.302-.075.377v7.558c0 .15 0 .302.075.377.15.303.302.53.605.605.15.076.302.076.377.076h7.558c.15 0 .302 0 .377-.076.303-.15.53-.302.605-.605.076-.15.076-.302.076-.377v-7.557c.075-.076.075-.227 0-.378Z" fill="#F1A000"/></g></symbol><symbol id="icon__cart" viewBox="0 0 120 120"><g fill="none"><path d="M86.797 67.119a8.31 8.31 0 0 0-7.504 4.73l-3.25-1.043 11.752-21.711a1.132 1.132 0 0 0 0-1.119 1.124 1.124 0 0 0-.975-.551h-5.804a5.76 5.76 0 0 0-4.67-4.905 5.776 5.776 0 0 0-6.37-4.7 5.776 5.776 0 0 0-3.742 2.032 5.848 5.848 0 0 0-4.307-.12 9.823 9.823 0 0 0-16.195-.356h-.09a5.773 5.773 0 0 0-5.774 5.774v2.267h-6.56a1.134 1.134 0 0 0-1.08 1.511l2.758 8.646-8.645-2.781a1.146 1.146 0 0 0-.696 2.184l15.394 4.965a1.147 1.147 0 0 0-.196.635v18.198a3.863 3.863 0 0 0 3.022 3.816c.313.075.632.113.953.114a3.855 3.855 0 0 0 3.461-2.146l7.784-15.288v-.001a1.14 1.14 0 0 0 .113-.484l22.43 7.225a8.312 8.312 0 1 0 8.2-6.892h-.009ZM42.127 45.15a3.507 3.507 0 0 1 4.021-3.468 1.12 1.12 0 0 0 1.118-.522 7.559 7.559 0 0 1 13.21.567 1.134 1.134 0 0 0 1.61.446 3.524 3.524 0 0 1 3.854.105 1.13 1.13 0 0 0 1.617-.415 3.507 3.507 0 0 1 6.59 1.67c0 .626.508 1.133 1.133 1.133a3.51 3.51 0 0 1 3.416 2.736H42.128V45.15ZM54.03 66.243l-7.776 15.28a1.663 1.663 0 0 1-3.144-.756v-18.19l11.003 3.544a.649.649 0 0 0-.083.121ZM37.64 58.428l-2.78-8.736h50.08L73.89 70.097 37.64 58.428Zm49.16 23.11a6.046 6.046 0 0 1-6.046-6.801l5.698 1.806c.113.035.23.053.348.052a1.134 1.134 0 0 0 .348-2.237l-5.675-1.829a6.042 6.042 0 0 1 7.288-2.763 6.045 6.045 0 0 1-1.999 11.749l.038.023Z" fill="#F1A000"/></g></symbol><symbol id="icon__clean" viewBox="0 0 120 120"><g fill="none"><path d="M92.896 56.66h-2.532v-2.706a14.872 14.872 0 0 0-14.85-14.79h-5.418v-3.528c0-.626-.508-1.134-1.133-1.134h-4.028V27.15h8.668a1.134 1.134 0 0 0 0-2.267h-19.58a1.133 1.133 0 1 0 0 2.267h8.645v7.353h-4.035c-.626 0-1.134.508-1.134 1.134v3.53l-4.3-.001a15.978 15.978 0 0 0-15.984 15.961v27.386H33.37c-.626 0-1.134.507-1.134 1.133v9.205h-5.13a1.134 1.134 0 0 0 0 2.267H58.3a1.133 1.133 0 0 0 0-2.267h-4.15v-9.205c0-.626-.507-1.133-1.133-1.133h-3.211V55.767a4.014 4.014 0 0 1 4.012-4.013h3.68v3.53c0 .626.508 1.134 1.134 1.134h10.33c.626 0 1.134-.508 1.134-1.134v-3.53h3.704-.001a4.022 4.022 0 0 1 4.02 4.014v.891h-2.493c-.626 0-1.134.508-1.134 1.134v6.287c0 .627.508 1.134 1.134 1.134h17.57a1.134 1.134 0 0 0 1.111-1.134v-6.287c0-.617-.494-1.121-1.11-1.134l-.002.001Zm-1.156 6.288H76.46v-4.02h15.28v4.02ZM67.83 51.755v2.395l-8.063.001v-17.38l8.062-.001v14.985ZM51.883 92.852h-17.38l-.001-8.071h17.38l.001 8.07Zm1.935-43.363a6.288 6.288 0 0 0-6.28 6.28v26.745h-8.056V55.128A13.71 13.71 0 0 1 53.2 41.433h4.323v8.055h-3.703Zm19.98 0h-3.703v-8.056h5.419a12.6 12.6 0 0 1 12.574 12.522v2.729h-8.003v-.915a6.286 6.286 0 0 0-6.287-6.28Z" fill="#F1A000"/><path d="M83.186 70.489c-.627.892-6.152 8.842-6.152 12.386a7.083 7.083 0 0 0 10.55 5.94 7.082 7.082 0 0 0 3.605-5.94c0-3.544-5.524-11.494-6.152-12.386a1.172 1.172 0 0 0-1.851 0Zm-3.885 12.386c0-1.851 2.66-6.469 4.814-9.718 2.147 3.25 4.807 7.867 4.807 9.718a4.814 4.814 0 0 1-9.62 0Z" fill="#F1A000"/></g></symbol><symbol id="icon__clock" viewBox="0 0 120 120"><g fill="none"><path d="M73.444 42.392a23.273 23.273 0 0 0-7.118-3.332l-1.398-7.739a1.117 1.117 0 0 0-1.315-.937l-17.29 3.167c-.616.111-1.025.7-.915 1.315l1.398 7.754a23.117 23.117 0 0 0 6.393 40.74l-1.194 5.495a1.14 1.14 0 0 0 .847 1.375c.08.008.161.008.242 0 .532.001.992-.37 1.103-.892l1.178-5.395h.001c1.588.35 3.21.528 4.837.529 1.391 0 2.78-.124 4.149-.37a23.109 23.109 0 0 0 8.373-3.273l2.978 4.633h-.001c.34.524 1.036.678 1.565.347a1.132 1.132 0 0 0 .34-1.572l-3.023-4.723a23.116 23.116 0 0 0-1.133-37.12l-.017-.002Zm-25.603-6.846L62.9 32.84l1.029 5.705a23.155 23.155 0 0 0-15.061 2.728l-1.028-5.728Zm29.54 37.71a20.788 20.788 0 0 1-4.897 4.996h-.038l-.128.098a20.89 20.89 0 0 1-17.381 3.136l-.16-.053h-.067a20.873 20.873 0 0 1-14.94-16.398 20.86 20.86 0 0 1 16.806-24.183 21.636 21.636 0 0 1 3.742-.333c1.58 0 3.154.182 4.692.544h.12a20.843 20.843 0 0 1 12.251 32.193Z" fill="#F1A000"/><path d="m46.979 62.608-4.784.86a1.138 1.138 0 0 0 .197 2.268.931.931 0 0 0 .204 0l4.784-.899a1.134 1.134 0 0 0-.401-2.23ZM77.933 57.03l-4.784.862a1.138 1.138 0 1 0 .197 2.267.926.926 0 0 0 .204 0l4.783-.915a1.151 1.151 0 1 0-.4-2.267v.053ZM63.733 74.245a1.132 1.132 0 0 0-1.324-.94 1.135 1.135 0 0 0-.905 1.348l.861 4.777c.08.557.556.973 1.118.974h.197a1.127 1.127 0 0 0 .915-1.314l-.862-4.845ZM58.163 43.299a1.15 1.15 0 1 0-2.267.4l.861 4.784c.104.55.589.947 1.15.937h.203a1.14 1.14 0 0 0 .915-1.314l-.862-4.807ZM71.745 67.61l-10.036-6.65 6.484-13.868a1.134 1.134 0 0 0-2.048-.96l-6.9 14.752a1.14 1.14 0 0 0 .4 1.428l10.86 7.195c.185.12.4.186.62.189a1.134 1.134 0 0 0 .627-2.086h-.007ZM33.3 40.064l1.195.953a6.1 6.1 0 0 0 2.81 8.403 1.14 1.14 0 0 0 1.368-.317l6-7.558h.001a1.134 1.134 0 0 0 0-1.405 6.17 6.17 0 0 0-1.005-1.027 6.102 6.102 0 0 0-7.776.15l-1.187-.944a1.13 1.13 0 0 0-1.64.137 1.134 1.134 0 0 0 .227 1.63l.007-.022Zm6.583 0a3.778 3.778 0 0 1 2.38.832l-4.768 5.985a3.826 3.826 0 0 1-.405-5.577 3.823 3.823 0 0 1 2.792-1.225v-.015ZM67.95 37.33l8.253 4.964a1.115 1.115 0 0 0 1.39-.174c.34-.34.637-.721.885-1.133a6.09 6.09 0 0 0-1.164-7.686l.824-1.262a1.135 1.135 0 0 0-1.943-1.17l-.755 1.306a6.08 6.08 0 0 0-7.92 3.877c-.152.474.022.992.43 1.277Zm2.033-1.46a3.825 3.825 0 0 1 6.552 3.946l-6.552-3.946ZM27.913 67.195a33.025 33.025 0 0 1 1.86-18.174 1.135 1.135 0 0 0-.603-1.542 1.132 1.132 0 0 0-1.499.703A35.29 35.29 0 0 0 34.306 85.1a1.124 1.124 0 0 0 1.595.075 1.123 1.123 0 0 0 .075-1.602 32.977 32.977 0 0 1-8.063-16.375v-.003Z" fill="#F1A000"/><path d="M34.412 66.046a26.195 26.195 0 0 1 1.474-14.426 1.135 1.135 0 1 0-2.101-.847A28.517 28.517 0 0 0 39.15 80.58a1.133 1.133 0 0 0 1.602.075 1.134 1.134 0 0 0 .076-1.602 26.241 26.241 0 0 1-6.416-13.006ZM94.574 55.187a35.238 35.238 0 0 0-8.63-17.502 1.134 1.134 0 0 0-1.678 1.512 33.06 33.06 0 0 1 6.227 34.559 1.133 1.133 0 0 0 .627 1.511 1.127 1.127 0 0 0 1.474-.627 35.207 35.207 0 0 0 1.98-19.452Z" fill="#F1A000"/><path d="M81.107 42.225a1.136 1.136 0 0 0-1.665-.161 1.135 1.135 0 0 0-.013 1.673 26.229 26.229 0 0 1 4.942 27.432A1.134 1.134 0 0 0 85 72.681c.134.057.278.085.423.083.46-.013.866-.303 1.028-.733a28.509 28.509 0 0 0-5.366-29.806h.023Z" fill="#F1A000"/></g></symbol><symbol id="icon__cottage" viewBox="0 0 120 120"><g fill="none"><path d="M53.003 50.063v-4.217a5.63 5.63 0 0 0-5.623-5.622h-.529a5.627 5.627 0 0 0-5.623 5.622v4.217c0 .626.508 1.133 1.134 1.133h9.507c.626 0 1.134-.507 1.134-1.133Zm-2.267-1.134h-7.24v-3.083a3.355 3.355 0 0 1 3.355-3.355h.53a3.356 3.356 0 0 1 3.355 3.355v3.083ZM71.17 51.196h9.507c.626 0 1.134-.507 1.134-1.133v-4.217a5.629 5.629 0 0 0-5.623-5.622h-.53.002a5.629 5.629 0 0 0-5.623 5.622v4.217c0 .626.507 1.133 1.133 1.133Zm1.134-5.35a3.357 3.357 0 0 1 3.355-3.355h.53a3.357 3.357 0 0 1 3.355 3.355v3.083h-7.24v-3.084ZM56.766 51.196h9.507c.625 0 1.133-.507 1.133-1.133v-7.618a5.63 5.63 0 0 0-5.622-5.622h-.53a5.63 5.63 0 0 0-5.622 5.622v7.618c0 .626.508 1.133 1.134 1.133Zm1.133-8.75a3.353 3.353 0 0 1 3.356-3.356h.529a3.355 3.355 0 0 1 3.355 3.355v6.484h-7.24v-6.484Z" fill="#F1A000"/><path d="M94.007 57.16h-6.28V35.705a1.133 1.133 0 0 0-.756-1.081L61.867 26.62a1.096 1.096 0 0 0-.695 0L48.25 30.747v-2.759c0-.611-.485-1.112-1.097-1.133h-6.801c-.626 0-1.134.508-1.134 1.133v5.645l-3.083.99a1.133 1.133 0 0 0-.793 1.082v22.67l-9.825 4.61a1.15 1.15 0 0 0-.65 1.028v28.286c0 .623.503 1.13 1.127 1.133h68.013c.626 0 1.134-.507 1.134-1.133V58.292c0-.626-.508-1.133-1.134-1.133ZM41.454 29.122h4.534v2.343l-4.534 1.443v-3.786Zm-3.876 7.406 23.933-7.64 23.949 7.64V57.16H60c-.626 0-1.134.507-1.134 1.133v3.922L43.48 54.968a1.142 1.142 0 0 0-.968 0l-4.935 2.32v-20.76Zm-4.746 54.639V73.272h7.231v17.894h-7.231Zm8.365-20.163h-9.5c-.625 0-1.132.508-1.132 1.134v19.03h-3.44v-26.45l15.87-7.467 15.87 7.467v26.45H42.332v-19.03c0-.626-.508-1.134-1.133-1.134Zm25.64 20.162V70.838h20.367v20.329H66.838Zm26.035 0h-3.4V69.704c0-.626-.508-1.133-1.134-1.133H65.704c-.626 0-1.134.507-1.134 1.133v21.463h-3.438v-31.74h31.74v31.74Z" fill="#F1A000"/><path d="M45.846 86.927h9.506c.627 0 1.134-.508 1.134-1.134v-9.167a5.63 5.63 0 0 0-5.622-5.623h-.53a5.631 5.631 0 0 0-5.622 5.623v9.167c0 .626.507 1.134 1.134 1.134Zm1.133-10.301a3.355 3.355 0 0 1 3.355-3.355h.53a3.356 3.356 0 0 1 3.355 3.355v8.033h-7.24v-8.033ZM72.447 63.568a.702.702 0 0 0-.106-.196.975.975 0 0 0-.136-.174 1.17 1.17 0 0 0-1.602 0 1.133 1.133 0 1 0 1.602 1.602.75.75 0 0 0 .136-.174.71.71 0 0 0 .106-.197 1.06 1.06 0 0 0 0-.861ZM83.239 63.024a1.212 1.212 0 0 0-.197-.099 1.119 1.119 0 0 0-.869 0 .937.937 0 0 0-.196.099 1.149 1.149 0 0 0-.506.944.993.993 0 0 0 0 .22c.032.145.09.283.173.408a.734.734 0 0 0 .136.173.945.945 0 0 0 .37.242c.068.03.139.054.212.068h.22c.15.001.3-.03.437-.09a1.21 1.21 0 0 0 .197-.099l.166-.143a1.098 1.098 0 0 0 .31-.582.994.994 0 0 0 0-.22 1.149 1.149 0 0 0-.264-.747l-.19-.174ZM78.054 63.568a1.573 1.573 0 0 0-.106-.196 1.133 1.133 0 0 0-1.164-.484.961.961 0 0 0-.21.068.968.968 0 0 0-.198.098 1.193 1.193 0 0 0-.317.318.945.945 0 0 0-.098.196.972.972 0 0 0-.091.211 1.073 1.073 0 0 0 0 .22 1.13 1.13 0 0 0 .506.944l.197.106.21.06h.001c.073.008.147.008.22 0 .626 0 1.133-.507 1.133-1.133a1.04 1.04 0 0 0 0-.197 1.718 1.718 0 0 0-.083-.211ZM78.659 86.095h-3.31a1.134 1.134 0 0 0 0 2.268h3.31a1.134 1.134 0 0 0 0-2.268Z" fill="#F1A000"/></g></symbol><symbol id="icon__cross" viewBox="0 0 24 24"><g fill="none"><path d="M7.52 6.47a.75.75 0 0 0-1.06 1.06l1.06-1.06Zm8.94 11.06a.75.75 0 1 0 1.06-1.06l-1.06 1.06Zm-10-10 10 10 1.06-1.06-10-10-1.06 1.06Z" fill="#070200"/><path d="M6.46 16.47a.75.75 0 1 0 1.06 1.06l-1.06-1.06Zm11.06-8.94a.75.75 0 0 0-1.06-1.06l1.06 1.06Zm-10 10 10-10-1.06-1.06-10 10 1.06 1.06Z" fill="#070200"/></g></symbol><symbol id="icon__doc" viewBox="0 0 120 120"><g fill="none"><path d="M66.878 63.477c2.871 0 5.743-1.058 7.935-3.25 4.08-4.08 4.307-10.504.831-14.887l1.814-2.419c.378-.529.303-1.209-.227-1.587-.529-.377-1.209-.302-1.587.227l-1.662 2.117c-4.383-3.628-10.958-3.401-15.039.68-4.383 4.383-4.383 11.486 0 15.87 2.191 2.191 5.063 3.25 7.935 3.25ZM60.53 46.021c1.738-1.814 4.005-2.645 6.348-2.645 2.04 0 4.08.68 5.743 2.116l-7.86 10.278-2.72-3.552c-.378-.53-1.058-.605-1.587-.227-.53.378-.605 1.058-.227 1.587l3.627 4.761c.227.302.529.453.907.453.377 0 .68-.15.907-.453l8.465-11.184c2.418 3.476 2.116 8.312-.983 11.411-3.476 3.476-9.144 3.476-12.62 0-3.477-3.4-3.477-9.069 0-12.545ZM52.67 86.904h28.263c.605 0 1.134-.529 1.134-1.134 0-.604-.53-1.133-1.134-1.133H52.67c-.604 0-1.134.53-1.134 1.134.001.604.53 1.133 1.134 1.133ZM52.67 79.12h28.263c.605 0 1.134-.529 1.134-1.134 0-.604-.53-1.133-1.134-1.133H52.67c-.604 0-1.134.53-1.134 1.134.001.605.53 1.133 1.134 1.133ZM52.67 71.411h28.263c.605 0 1.134-.53 1.134-1.134 0-.604-.53-1.134-1.134-1.134l-28.264.001c-.604 0-1.134.53-1.134 1.134.001.604.53 1.133 1.134 1.133Z" fill="#F1A000"/><path d="M89.927 24.86H43.752c-.604 0-1.133.53-1.133 1.134v11.11H30.074c-.604 0-1.134.528-1.134 1.133v48.895c0 4.383 3.552 8.01 8.01 8.01h46.175c4.384 0 8.01-3.551 8.01-8.01V25.994c-.075-.604-.528-1.134-1.208-1.134ZM31.208 87.13V39.37H42.62v47.76a5.74 5.74 0 0 1-5.744 5.744c-3.174 0-5.668-2.57-5.668-5.744Zm57.586 0a5.74 5.74 0 0 1-5.744 5.744H42.467V92.8c.076-.076.151-.227.303-.303.075-.075.15-.15.226-.302.076-.075.151-.227.227-.302.076-.076.151-.227.227-.302.076-.076.151-.227.227-.378.076-.076.151-.227.227-.303.075-.15.15-.226.15-.377.076-.076.076-.227.152-.303.075-.15.075-.302.15-.377.076-.076.076-.227.151-.303.076-.15.076-.302.151-.453 0-.075.076-.227.076-.302 0-.151.075-.378.075-.53 0-.075 0-.15.076-.302 0-.302.075-.529.075-.831l.001-48.895v-11.11h43.907V87.13h-.074Z" fill="#F1A000"/></g></symbol><symbol id="icon__floor" viewBox="0 0 120 120"><g fill="none"><path d="M90.984 30.852H41.97a7.094 7.094 0 0 0-10.878-4.815 7.094 7.094 0 0 0-3.223 5.949v56.028a7.11 7.11 0 0 0 7.103 7.104h56.014c.626 0 1.134-.508 1.134-1.133v-61.97a1.135 1.135 0 0 0-1.134-1.163h-.002ZM30.12 31.986a4.839 4.839 0 0 1 4.832-5.028 4.836 4.836 0 0 1 4.834 5.028v50.83a7.07 7.07 0 0 0-4.83-1.905h-.944c-.151 0-.303.022-.453.068l-.265.06-.408.106-.264.099c-.127.037-.25.082-.371.135l-.264.12-.348.167-.257.144-.317.196-.242.174a4.246 4.246 0 0 0-.302.22l-.227.196c-.053.045-.121.09-.174.143V31.986ZM89.82 92.85H34.972a4.84 4.84 0 0 1-4.844-4.832 4.834 4.834 0 0 1 4.834-4.841 4.837 4.837 0 0 1 4.84 4.836 1.133 1.133 0 0 0 2.266 0V33.12h47.8l-.047 59.732Z" fill="#F1A000"/><path d="M48.566 87.833h34.808c.626 0 1.134-.507 1.134-1.134V57.733c0-.626-.508-1.133-1.133-1.133a7.05 7.05 0 0 1-7.052-7.051 1.133 1.133 0 0 0-2.267 0 9.323 9.323 0 0 0 8.185 9.227v26.791H67.127v-4.096a1.134 1.134 0 1 0-2.267 0v4.096H49.744V64.12H64.86v4.096a1.133 1.133 0 0 0 2.268 0V57.734a1.133 1.133 0 0 0-2.267 0v4.096H49.744V40.4H64.86v4.095a1.133 1.133 0 0 0 2.268 0V40.4H82.24v4.096a1.134 1.134 0 0 0 2.267 0v-5.23c0-.625-.508-1.133-1.133-1.133H48.567c-.626 0-1.134.508-1.134 1.133v47.437c0 .627.508 1.134 1.134 1.134v-.003Z" fill="#F1A000"/></g></symbol><symbol id="icon__floor_alt" viewBox="0 0 120 120"><g fill="none"><path d="M34.133 88.701h50.808c.626 0 1.133-.507 1.133-1.133V54.601c0-.626-.507-1.134-1.133-1.134a7.05 7.05 0 0 1-7.051-7.05 1.133 1.133 0 0 0-2.267 0 9.324 9.324 0 0 0 8.184 9.227v30.79H60.693V82.34a1.133 1.133 0 1 0-2.267 0v4.096H35.312V60.989h23.114v4.096a1.133 1.133 0 1 0 2.267 0V54.603a1.133 1.133 0 0 0-2.267 0v4.096H35.312V33.267h23.114v4.096a1.133 1.133 0 0 0 2.267 0v-4.096h23.114v4.096a1.134 1.134 0 0 0 2.267 0v-5.23c0-.626-.507-1.134-1.133-1.134H34.133c-.626 0-1.133.508-1.133 1.134V87.57c0 .626.507 1.133 1.133 1.133v-.003Z" fill="#F1A000"/></g></symbol><symbol id="icon__keys" viewBox="0 0 120 120"><g fill="none"><path d="M51.688 83.36a1.124 1.124 0 0 0-1.602 0l-.983.983-.982-.983a1.132 1.132 0 1 0-1.587 1.58l.982.981-.982.983a1.124 1.124 0 0 0 0 1.602c.443.442 1.16.442 1.602 0l.982-.982.983.982a1.134 1.134 0 0 0 1.937-.8c0-.302-.12-.59-.335-.802l-.982-.982.967-.983a1.125 1.125 0 0 0 0-1.579ZM80.405 39.483c.442.443 1.16.443 1.602 0l2.176-2.154 2.177 2.184c.213.212.5.332.801.333a1.142 1.142 0 0 0 .801-1.972l-2.177-2.177 2.177-2.146a1.127 1.127 0 0 0 0-1.602 1.142 1.142 0 0 0-1.602 0l-2.177 2.146L82 31.91a1.14 1.14 0 0 0-1.602 0 1.127 1.127 0 0 0 .008 1.64l2.177 2.184-2.177 2.138a1.136 1.136 0 0 0 0 1.61ZM35.879 68.654a1.133 1.133 0 0 0-1.421.755l-3.854 12.213a1.133 1.133 0 0 0 .756 1.42 1.148 1.148 0 0 0 1.42-.703l3.854-12.227a1.135 1.135 0 0 0-.755-1.458ZM72.651 62.94a5.587 5.587 0 0 0 .953 4.194l4.904 6.967c.18.249.452.414.756.462a.86.86 0 0 0 .196 0c.233 0 .46-.071.65-.205l7.398-5.207a1.141 1.141 0 0 0 .242-1.594l-4.904-6.968a5.636 5.636 0 0 0-7.89-1.315 5.564 5.564 0 0 0-2.305 3.665Zm3.665-1.83v.001a3.37 3.37 0 0 1 4.678.816l4.248 6.046-5.547 3.892-4.248-6.046a3.31 3.31 0 0 1-.566-2.501 3.397 3.397 0 0 1 1.435-2.207Z" fill="#F1A000"/><path d="M94.937 70.104 79.422 48.067a1.126 1.126 0 0 0-1.125-.469l-5.925 1.066a17.887 17.887 0 1 0-35.133-4.746v.884c-.553.183-1.091.408-1.61.673a11.797 11.797 0 0 0-5.026 15.915c.41.78.905 1.512 1.474 2.185L25.01 86.027a3.267 3.267 0 0 0 .226 2.509l1.996 3.74v.001a3.25 3.25 0 0 0 2.894 1.73 3.194 3.194 0 0 0 1.451-.34l3.779-1.92a3.28 3.28 0 0 0 1.632-1.919l.56-1.783a3.246 3.246 0 0 0-.704-3.174.96.96 0 0 1-.211-.96.974.974 0 0 1 .755-.672 3.245 3.245 0 0 0 2.396-2.192l1.663-5.29a3.249 3.249 0 0 0-.703-3.174.96.96 0 0 1-.211-.96c.109-.344.4-.6.755-.665a3.257 3.257 0 0 0 2.396-2.199l.445-1.413a11.827 11.827 0 0 0 7.444-5.91c.783.161 1.576.27 2.373.325l-2.916 5.041c-.22.382-.197.858.06 1.217l15.507 22.03c.218.313.58.495.96.483.234 0 .461-.074.65-.212l4.413-3.113L80.02 82l14.638-10.316a1.136 1.136 0 0 0 .28-1.58ZM41.47 68.08a.99.99 0 0 1-.755.665 3.258 3.258 0 0 0-1.693 5.373c.26.262.353.646.242.998l-1.663 5.29a.974.974 0 0 1-.756.672 3.251 3.251 0 0 0-1.692 5.373.99.99 0 0 1 .21.96l-.558 1.784c-.085.25-.264.459-.499.582l-3.779 1.911a.99.99 0 0 1-1.314-.415l-2.003-3.78a1 1 0 0 1-.068-.755l6.786-21.446a11.988 11.988 0 0 0 3.62 1.889c1.144.36 2.337.545 3.537.544h.506l-.12.355Zm-3.242-3.068a9.527 9.527 0 0 1-6.203-11.96 9.531 9.531 0 0 1 4.692-5.58c.271-.144.551-.258.831-.379.202 1.123.511 2.224.922 3.288a4.535 4.535 0 0 0 2.109 7.255c.44.14.898.211 1.36.211a4.535 4.535 0 0 0 1.367-8.872 4.489 4.489 0 0 0-2.954.068 15.49 15.49 0 0 1-.643-2.547c.463-.069.93-.102 1.398-.098a9.528 9.528 0 1 1-2.856 18.62l-.023-.006Zm1.459-12.091v-.001a17.77 17.77 0 0 0 1.859 2.6 1.514 1.514 0 0 1-.31-.068 2.267 2.267 0 0 1-1.55-2.509v-.022Zm4.398 1.05a2.24 2.24 0 0 1-.31.612 15.657 15.657 0 0 1-2.494-3.469c.206-.065.42-.1.635-.106.234 0 .466.039.688.114.577.177 1.057.58 1.33 1.118a2.19 2.19 0 0 1 .151 1.753v-.022Zm11.041 5.532a15.7 15.7 0 0 1-2.728-.257 11.781 11.781 0 0 0-12.847-15.04v-.34a15.629 15.629 0 1 1 30.273 5.215l-9.151 1.61a1.149 1.149 0 0 0-.756.552l-4.715 8.312-.076-.052Zm17.118 25.187-9.75-13.844 5.548-3.907L77.79 80.79l-5.547 3.9Zm7.406-5.206L69.244 64.707a1.14 1.14 0 0 0-1.58-.28l-7.398 5.215c-.255.177-.424.45-.469.756-.038.29.035.584.204.824l10.383 14.774-2.584 1.821-14.441-20.524 3.166-5.57a17.803 17.803 0 0 0 6.159-1.625 3.372 3.372 0 0 0 5.358-.788 3.37 3.37 0 1 0-6.326-1.26 15.673 15.673 0 0 1-3.778 1.217l3.658-6.439 9.416-1.647 6.975-1.224L92.43 70.482l-12.78 9ZM66.046 58.058a1.067 1.067 0 0 1-1.058.748c.371-.242.734-.484 1.058-.748Z" fill="#F1A000"/></g></symbol><symbol id="icon__like" viewBox="0 0 120 120"><g fill="none"><path d="M96.275 77.366a7.274 7.274 0 0 0-1.723-4.716c2.37-1.212 4.002-3.684 4.002-6.517 0-4.036-3.288-7.323-7.323-7.323l-23.443-.001V42.213c0-6.836-5.555-12.39-12.39-12.39-.94 0-1.7.76-1.7 1.701 0 13.41-1.315 25.868-10.452 27.16-.498-3.048-3.14-5.384-6.325-5.384h-9.046a6.424 6.424 0 0 0-6.416 6.416v46.534a6.424 6.424 0 0 0 6.416 6.416h9.046c3.23 0 5.905-2.403 6.348-5.509h41.148c4.036 0 7.323-3.287 7.323-7.323a7.274 7.274 0 0 0-1.723-4.715c2.37-1.213 4.002-3.684 4.002-6.518a7.275 7.275 0 0 0-1.723-4.715 7.327 7.327 0 0 0 3.98-6.519v-.001Zm-56.338 28.893a3.015 3.015 0 0 1-3.016 3.016h-9.046a3.015 3.015 0 0 1-3.015-3.016V59.715a3.014 3.014 0 0 1 3.016-3.015h9.046a3.014 3.014 0 0 1 3.016 3.015l-.001 46.544Zm49.016-24.973h-2.267c-.94 0-1.701.76-1.701 1.701 0 .94.76 1.701 1.7 1.701a3.923 3.923 0 0 1 0 7.845h-2.267c-.94 0-1.7.76-1.7 1.7 0 .941.759 1.701 1.7 1.701a3.923 3.923 0 0 1 0 7.845l-41.079-.003v-41.67C56.251 60.712 57.056 43.425 57.1 33.392c4.15.794 7.29 4.455 7.29 8.83v16.585h-2.438c-.94 0-1.7.759-1.7 1.7s.758 1.701 1.7 1.701h29.27a3.923 3.923 0 0 1 0 7.845h-2.268c-.94 0-1.701.76-1.701 1.7 0 .941.76 1.702 1.7 1.702a3.923 3.923 0 0 1 3.923 3.922 3.921 3.921 0 0 1-3.922 3.91Z" fill="#F1A000"/><path d="M29.78 40.538h10.645c.94 0 1.7-.76 1.7-1.701 0-.94-.759-1.701-1.7-1.701H29.78c-.94 0-1.7.76-1.7 1.7 0 .942.759 1.702 1.7 1.702ZM44.834 26.48c.329.329.77.498 1.201.498.431 0 .873-.17 1.202-.498a1.69 1.69 0 0 0 0-2.403L39.71 16.55a1.69 1.69 0 0 0-2.403 0 1.69 1.69 0 0 0 0 2.403l7.527 7.527ZM77.071 38.836c0 .94.76 1.7 1.701 1.7h10.644c.94 0 1.701-.759 1.701-1.7s-.76-1.701-1.7-1.701H78.771a1.7 1.7 0 0 0-1.7 1.7ZM73.15 26.98c.432 0 .874-.17 1.202-.498l7.527-7.527a1.69 1.69 0 0 0 0-2.403 1.69 1.69 0 0 0-2.403 0l-7.527 7.527a1.69 1.69 0 0 0 0 2.403c.34.328.77.498 1.202.498ZM59.593 21.37c.94 0 1.701-.76 1.701-1.701V9.024c0-.94-.76-1.7-1.702-1.7-.94 0-1.7.759-1.7 1.7V19.67c0 .929.76 1.7 1.701 1.7Z" fill="#F1A000"/></g></symbol><symbol id="icon__mail" viewBox="0 0 24 24"><g fill="none"><path clip-rule="evenodd" d="M3 6.8c0 .6.3 1.1.8 1.5l6 4.1c1.4.9 3.1.9 4.5 0l6-4c.4-.5.7-1 .7-1.6 0-1-.8-1.8-1.8-1.8H4.8C3.8 5 3 5.8 3 6.8Z"/><path d="M3 7v10c0 1.1.9 2 2 2h14c1.1 0 2-.9 2-2V7M3.588 18.412l6.094-6.094M14.36 12.36l6.052 6.052"/></g></symbol><symbol id="icon__next" viewBox="0 0 48 48"><g fill="none"><rect width="48" height="48" rx="24" transform="matrix(-1 0 0 1 48 0)" fill="#fff"/><path fill-rule="evenodd" clip-rule="evenodd" d="m26.707 24-7.071-7.071 2.829-2.828 9.899 9.9-9.9 9.899-2.828-2.829 7.071-7.07Z" fill="#F1A000"/></g></symbol><symbol id="icon__phone" viewBox="0 0 24 24"><g fill="none"><path d="M9.499 2.996v1.8a.557.557 0 0 0 .5.601h4.002a.557.557 0 0 0 .5-.6v-1.8M10 18.003h4"/><path clip-rule="evenodd" d="M16.002 21.004H7.998a2 2 0 0 1-2-2.001V4.997a2 2 0 0 1 2-2h8.004a2 2 0 0 1 2 2v14.006a2 2 0 0 1-2 2Z"/></g></symbol><symbol id="icon__play" viewBox="0 0 69 69"><g fill="none"><path d="M69 34.5C69 53.554 53.554 69 34.5 69 15.446 69 0 53.554 0 34.5 0 15.446 15.446 0 34.5 0 53.554 0 69 15.446 69 34.5Z" fill="#fff"/><path d="M29.53 21.684c-2-1.185-4.53.257-4.53 2.581v21.47c0 2.325 2.53 3.766 4.53 2.581l18.115-10.734c1.96-1.162 1.96-4 0-5.162L29.529 21.684Z" fill="#F1A000"/></g></symbol><symbol id="icon__prev" viewBox="0 0 48 48"><g fill="none"><rect width="48" height="48" rx="24" fill="#fff"/><path fill-rule="evenodd" clip-rule="evenodd" d="m21.293 24 7.071-7.071-2.829-2.828-9.899 9.9 9.9 9.899 2.828-2.829-7.071-7.07Z" fill="#F1A000"/></g></symbol><symbol id="icon__project"><g fill="none"><path d="M6.858 6.74A.947.947 0 0 0 6 7.687v24.626c0 .523.424.947.947.947h23.679a.947.947 0 0 0 .947-.947v-9.99l4.425-3.98a.954.954 0 1 0-1.273-1.421l-4.735 4.262a.948.948 0 0 0-.311.71v2.842h-4.262a.948.948 0 1 0 0 1.894h4.262v4.736h-10.42v-4.262a.947.947 0 1 0-1.894 0v4.262H7.894v-8.998h10.419a.947.947 0 0 0 .947-.947v-2.886l4.425-3.981a.947.947 0 0 0-.607-1.672.948.948 0 0 0-.666.251l-4.736 4.262a.949.949 0 0 0-.31.71v2.369H7.893V8.634h9.471v4.263a.95.95 0 0 0 .948.96.948.948 0 0 0 .947-.96V8.635h10.419v5.21a.946.946 0 1 0 1.894 0V7.687a.947.947 0 0 0-.947-.948H6.947a1.12 1.12 0 0 0-.088 0Z" fill="#F1A000"/></g></symbol><symbol id="icon__right" viewBox="0 0 120 120"><g fill="none"><path d="M71.261 42.77c-.529-.379-1.209-.303-1.587.226L54.786 62.493l-5.819-7.633c-.377-.53-1.057-.605-1.587-.227-.529.378-.604 1.058-.226 1.587l6.725 8.842c.227.303.53.453.907.453.378 0 .68-.15.907-.453l15.794-20.706c.379-.529.227-1.209-.226-1.587Z" fill="#F1A000"/><path d="m86.073 86.678-8.162-16.55c.227-.15.453-.378.605-.605 10.202-10.202 10.202-26.827 0-37.029-10.203-10.127-26.828-10.127-37.03.076-10.201 10.202-10.202 26.827 0 37.029.227.227.454.378.605.605L33.93 86.678c-.151.378-.151.756.075 1.134.227.378.605.53.982.53l9.598-.379 6.197 6.878c.227.227.529.378.831.378h.227c.378-.076.68-.378.832-.756l5.668-17.154c.529 0 1.057.075 1.587.075.529 0 1.057 0 1.587-.075l5.668 17.154c.15.378.453.68.831.756h.227c.303 0 .605-.151.832-.378l6.196-6.878 9.598.378c.378 0 .755-.15.982-.53.226-.377.377-.83.226-1.133h-.001Zm-34.838 5.138-5.29-5.819c-.227-.226-.53-.377-.832-.377h-.075l-8.238.302 7.104-14.283c.075.075.15.15.302.227.15.15.378.302.53.378.302.227.68.453 1.057.68.227.15.378.226.605.377l1.133.68c.151.076.378.227.53.303.529.302 1.057.529 1.587.755 0 0 .075 0 .075.076.605.227 1.134.453 1.738.68.15.075.378.15.53.15.377.151.83.228 1.209.378.226.076.453.151.68.151.377.076.831.151 1.209.227.227.076.453.076.68.15.15 0 .227.076.378.076l-4.912 14.89Zm6.499-17.002c-1.21-.151-2.494-.303-3.704-.68-.755-.227-1.435-.454-2.191-.68a22.908 22.908 0 0 1-7.557-4.534l-.227-.227c-.303-.303-.605-.53-.907-.832-9.296-9.295-9.296-24.485 0-33.78 4.61-4.61 10.732-6.953 16.852-6.953 6.12 0 12.243 2.343 16.928 6.953 9.295 9.295 9.295 24.485 0 33.78-.302.302-.605.53-.907.832l-.227.227c-3.779 3.324-8.464 5.365-13.451 5.818a18.914 18.914 0 0 1-4.61.076ZM74.888 85.62c-.302 0-.68.15-.907.377l-5.29 5.82-4.912-14.889c.15 0 .227-.075.378-.075.227 0 .453-.075.68-.15.377-.076.831-.152 1.209-.228.227-.075.453-.075.68-.15.453-.076.832-.227 1.21-.378.15-.076.377-.151.528-.151.605-.227 1.134-.453 1.738-.68 0 0 .076 0 .076-.076.529-.227 1.058-.529 1.587-.755.15-.076.378-.227.53-.302l1.133-.68c.227-.151.378-.227.605-.378.377-.227.68-.453 1.057-.68.151-.151.378-.227.53-.378.075-.075.15-.15.302-.227l7.103 14.283-8.237-.303Z" fill="#F1A000"/></g></symbol><symbol id="icon__roller" viewBox="0 0 120 120"><g fill="none"><path d="M51.045 50.517a9.417 9.417 0 1 0 9.416 9.416 9.423 9.423 0 0 0-9.416-9.416Zm0 16.565a7.15 7.15 0 1 1 7.149-7.15 7.158 7.158 0 0 1-7.15 7.15Z" fill="#F1A000"/><path d="M94.007 63.884H73.165v-3.953a22.009 22.009 0 0 0-2.146-9.498l3.022-3.862a5.857 5.857 0 0 0-.31-7.557 26.5 26.5 0 0 0-4.806-4.15 5.69 5.69 0 0 0-4.322-.853 5.855 5.855 0 0 0-3.779 2.516l-1.829 2.766a22.043 22.043 0 0 0-7.95-1.511 22.141 22.141 0 0 0-22.09 21.017h-2.962c-.626 0-1.134.507-1.134 1.133a26.207 26.207 0 0 0 26.186 26.185c.625 0 1.133-.507 1.133-1.134v-2.932h11.215a5.195 5.195 0 0 0 5.07 4.066h1.406a3.302 3.302 0 0 0 3.295-3.295v-5.6h19.71v3.696a1.134 1.134 0 0 0 2.267 0v-15.87a1.132 1.132 0 0 0-1.133-1.164h-.001ZM65.53 80.92c0-.627-.508-1.134-1.134-1.134h-12.22v-1.028c0-.529-.368-.987-.884-1.103a24.098 24.098 0 0 1-17.97-17.971 1.134 1.134 0 0 0-1.104-.884h-.998a19.884 19.884 0 0 1 19.823-18.72 19.654 19.654 0 0 1 7.814 1.61c.063.034.129.062.197.084a19.998 19.998 0 0 1 9.582 8.977l.083.16a19.809 19.809 0 0 1 2.177 9.022v22.891a1.029 1.029 0 0 1-1.028 1.028h-1.406a2.931 2.931 0 0 1-2.932-2.932ZM49.91 82.022v1.806a23.955 23.955 0 0 1-22.754-22.762h4.171A26.447 26.447 0 0 0 49.91 79.649v2.373Zm12.847-44.255a3.603 3.603 0 0 1 2.268-1.511c.907-.185 1.851 0 2.622.513a24.467 24.467 0 0 1 4.398 3.779 3.594 3.594 0 0 1 .197 4.648l-2.419 3.075a22.265 22.265 0 0 0-8.736-8.033l1.67-2.47Zm10.407 37.19v-8.805H76.3v2.063a1.133 1.133 0 0 0 2.267 0v-2.063h3.348v4.429a1.133 1.133 0 0 0 2.267 0v-4.429h3.317v2.063a1.134 1.134 0 0 0 2.268 0v-2.063h3.105v8.804H73.164Z" fill="#F1A000"/></g></symbol><symbol id="icon__search" viewBox="0 0 120 120"><g fill="none"><path d="m64.383 68.01-.755.756-3.325-3.325c1.587-1.964 2.419-4.307 2.419-6.877 0-2.872-1.134-5.668-3.175-7.708-2.04-2.04-4.76-3.174-7.708-3.174-2.947 0-5.668 1.21-7.709 3.25-2.04 2.04-3.174 4.76-3.174 7.708 0 2.947 1.134 5.668 3.174 7.708s4.761 3.174 7.709 3.174c2.494 0 4.912-.831 6.877-2.418l3.325 3.325-.756.755a1.096 1.096 0 0 0 0 1.587l12.772 12.772c.227.226.53.302.831.302.303 0 .605-.076.832-.302l3.174-3.174c.227-.227.302-.53.302-.832 0-.302-.15-.605-.302-.832L65.97 68.011c-.453-.454-1.209-.454-1.587 0Zm-18.665-3.249c-1.662-1.662-2.494-3.778-2.494-6.12 0-2.343.907-4.46 2.494-6.122 1.587-1.662 3.779-2.494 6.121-2.494 2.267 0 4.459.907 6.121 2.494 1.663 1.587 2.494 3.779 2.494 6.121 0 2.343-.907 4.459-2.494 6.121-1.662 1.663-3.778 2.494-6.12 2.494-2.268 0-4.46-.907-6.122-2.494Zm29.02 18.364L63.63 71.941l1.587-1.588 11.11 11.11-1.588 1.662Z" fill="#F1A000"/><path d="M83.504 33.399H71.185a10.346 10.346 0 0 0-5.97-4.081c-.378-2.494-2.57-4.459-5.214-4.459-2.645 0-4.837 1.965-5.214 4.459-2.419.605-4.459 2.04-5.97 4.08H36.498c-.605 0-1.134.53-1.134 1.135v59.475c0 .604.529 1.134 1.134 1.134h47.08c.605 0 1.134-.53 1.134-1.134V34.533c-.075-.68-.529-1.134-1.209-1.134Zm-27.433-2.04c.53-.076.983-.605.983-1.134v-.076a3.031 3.031 0 0 1 3.022-3.022A3.031 3.031 0 0 1 63.1 30.15v.075c0 .605.378 1.058.982 1.134 2.343.377 4.383 1.738 5.668 3.779.605.982.983 2.04 1.21 3.174l-21.765-.001a7.114 7.114 0 0 1 1.21-3.174c1.283-2.04 3.324-3.4 5.667-3.778ZM82.37 92.873H37.631V35.666h9.975v.075c-.075.302-.227.53-.302.832-.076.302-.15.529-.227.831 0 .076 0 .151-.075.227 0 .227-.076.453-.076.68v.227c0 .302-.075.605-.075.907 0 .605.529 1.134 1.134 1.134H71.94c.605 0 1.134-.53 1.134-1.134 0-.302 0-.605-.076-.907v-.227c0-.227-.075-.453-.075-.68 0-.075 0-.15-.076-.227-.075-.302-.15-.605-.226-.831a3.66 3.66 0 0 0-.303-.832v-.075h9.976l-.001 57.207h.076Z" fill="#F1A000"/></g></symbol><symbol id="icon__sign" viewBox="0 0 120 120"><g fill="none"><path d="M35.818 38.327h13.036a1.134 1.134 0 0 0 0-2.267H35.818a1.133 1.133 0 1 0 0 2.267ZM35.818 45.702h5.29a1.133 1.133 0 1 0 0-2.267h-5.29a1.134 1.134 0 1 0 0 2.267ZM34.813 51.937c0 .626.507 1.134 1.134 1.134h35.518a1.134 1.134 0 0 0 0-2.267H35.947c-.627 0-1.134.507-1.134 1.133ZM71.48 58.18H35.962a1.134 1.134 0 1 0 0 2.266H71.48a1.134 1.134 0 0 0 0-2.267ZM35.946 67.822h19.391a1.134 1.134 0 1 0 0-2.267H35.946a1.134 1.134 0 1 0 0 2.267Z" fill="#F1A000"/><path d="m91.99 61.02-2.1-2.094.414-.438a6.418 6.418 0 0 0 1.92-4.08 5.018 5.018 0 0 0-5.494-5.502 6.492 6.492 0 0 0-4.059 1.942l-1.246 1.217-1.686 1.685v-9.893a1.067 1.067 0 0 0 0-.218.952.952 0 0 0-.09-.265.244.244 0 0 0 0-.06.904.904 0 0 0-.174-.243l-17.963-17.88a.746.746 0 0 0-.242-.174h-.068a1.024 1.024 0 0 0-.264-.098l-.182-.06H28.813c-.626 0-1.134.507-1.134 1.133v68.014c0 .626.508 1.133 1.134 1.133h49.793c.626 0 1.134-.507 1.134-1.133V69.067l8.547-8.54 1.292 1.293-5.078 5.086a1.13 1.13 0 0 0 0 1.602c.442.442 1.16.442 1.602 0l5.887-5.88a1.148 1.148 0 0 0 0-1.61v.002Zm-12.25 4.86-2.268 2.266-12.227 12.257-4.489-4.488 16.716-16.67 4.753-4.755 4.459 4.46-6.945 6.93ZM59.093 82.057l.423-4.209 3.779 3.779-4.202.43Zm24.734-29.192.415-.416c1.512-1.512 3.704-1.7 4.935-.476 1.232 1.224 1.05 3.446-.46 4.935l-.417.416-4.473-4.46ZM75.87 42.724H61.874V28.728L75.87 42.724Zm1.602 50.15H29.946V27.126h29.662v16.731c0 .627.507 1.134 1.133 1.134h16.731v11.026L58.384 75.115l-.96.96-.634 6.37c-2.608.597-4.996 1.821-7.467 2.85-.348.142-.695.279-1.05.407-.174.068-.491.121-.756.212 0-.356.076-.703.121-1.05v-.001c.24-1.826.583-3.639 1.028-5.426a1.14 1.14 0 0 0-1.89-1.104 16.34 16.34 0 0 0-2.373 2.827 16.509 16.509 0 0 0-.793-3.023 17.824 17.824 0 0 0-2.025-3.892c-.695-.998-1.648-2.267-3.023-1.512-1.11.643-1.768 2.343-2.267 3.462a15.478 15.478 0 0 0-1.277 4.247 3.531 3.531 0 0 0 1.292 3.476 3.02 3.02 0 0 0 3.257.174c1.24-.755.098-2.72-1.149-1.957-.582.355-1.11-.257-1.179-.801a6.442 6.442 0 0 1 .499-2.593c.301-.943.69-1.857 1.164-2.728.06-.113.34-.514.544-.846.099.12.204.234.272.332a14.901 14.901 0 0 1 2.532 10.52c-.212 1.398 1.851 2.056 2.184.597a13.01 13.01 0 0 1 1.11-3.023 54.763 54.763 0 0 0-.203 1.549c-.099.869-.31 1.851.34 2.562a2.268 2.268 0 0 0 2.199.446 31.889 31.889 0 0 0 5.116-2.085 21.456 21.456 0 0 1 5.683-1.754l6.378-.643 12.416-12.332v21.538Z" fill="#F1A000"/></g></symbol><symbol id="icon__social_tg" viewBox="0 0 24 24"><g fill="none"><path d="M11.795 16.906 9.73 18.915a.666.666 0 0 1-1.102-.284l-1.376-4.53"/><path d="m14.104 10.927-3.917 3.535a.843.843 0 0 0 .066 1.305l5.378 3.973a.904.904 0 0 0 1.422-.54l2.641-12.447a.775.775 0 0 0-1.037-.884L3.142 11.853a.516.516 0 0 0 .032.975L7.251 14.1"/></g></symbol><symbol id="icon__social_wa" viewBox="0 0 24 24"><g fill="none"><path clip-rule="evenodd" d="M18.204 5.762a8.665 8.665 0 0 0-6.167-2.556c-4.807 0-8.718 3.909-8.719 8.714a8.7 8.7 0 0 0 1.163 4.357l-1.237 4.516 4.622-1.212a8.717 8.717 0 0 0 4.167 1.061h.004c4.805 0 8.716-3.91 8.718-8.715a8.662 8.662 0 0 0-2.551-6.165Z"/><path d="m13.095 13.56.406-.403c.373-.37.963-.417 1.393-.115.416.292.792.554 1.142.798.556.386.623 1.178.144 1.656l-.359.359M8.145 8.179l.359-.359a1.083 1.083 0 0 1 1.656.144c.243.35.505.726.798 1.142a1.09 1.09 0 0 1-.115 1.393l-.403.406M15.821 15.855c-1.481 1.474-3.97.222-5.935-1.744"/><path d="M9.888 14.114C7.923 12.148 6.671 9.66 8.145 8.179M10.44 10.905a8.686 8.686 0 0 0 1.19 1.463l.002.002c.462.462.96.871 1.463 1.19"/></g></symbol><symbol id="icon__time" viewBox="0 0 120 120"><g fill="none"><path d="M44.387 40.125a1.134 1.134 0 1 0 0 2.267h3.023a14.366 14.366 0 0 0-1.723 6.802c0 3.975 5.063 8.313 9.318 11.215a.937.937 0 0 1 .038 1.511c-4.535 3.385-9.825 8.366-9.25 12.885a13.92 13.92 0 0 0 1.64 5.04H44.41a1.133 1.133 0 0 0 0 2.267h31.203a1.133 1.133 0 0 0 0-2.267H72.59a14.356 14.356 0 0 0 1.723-6.8c0-3.976-5.063-8.314-9.317-11.216h-.001a.937.937 0 0 1-.038-1.511c4.534-3.385 9.824-8.366 9.25-12.885a13.923 13.923 0 0 0-1.64-5.04h3.023a1.133 1.133 0 1 0 0-2.268H44.387Zm25.046 2.267c.318 0 .616.158.793.423a11.614 11.614 0 0 1 1.745 4.89c.325 2.652-2.72 6.582-8.35 10.792a3.196 3.196 0 0 0-1.293 2.637 3.242 3.242 0 0 0 1.398 2.584c5.222 3.59 8.313 7.089 8.313 9.349s-.633 4.474-1.829 6.393a.938.938 0 0 1-.755.43H50.563a.952.952 0 0 1-.794-.422 11.622 11.622 0 0 1-1.745-4.89c-.325-2.652 2.72-6.582 8.35-10.792a3.197 3.197 0 0 0 1.293-2.637 3.24 3.24 0 0 0-1.398-2.584c-5.222-3.59-8.313-7.09-8.313-9.349 0-2.26.634-4.475 1.828-6.393a.938.938 0 0 1 .757-.43h18.892Z" fill="#F1A000"/><path d="M61.157 68.828a3.3 3.3 0 0 0 0-.386c0-.162-.036-.322-.105-.468v-.666a1.134 1.134 0 0 0-2.268 0v1.134a3.3 3.3 0 0 0 0 .386c-.756 2.048-6.801 4.988-8.706 4.988v-.001a1.134 1.134 0 0 0 0 2.268c1.957 0 7.437-2.139 9.825-4.958 2.426 2.82 7.904 4.958 9.824 4.958a1.134 1.134 0 0 0 0-2.268c-1.739 0-7.83-2.94-8.57-4.987ZM50.176 46.972a1.134 1.134 0 1 0 0 2.267c1.875 0 7.965 2.94 8.706 4.988a3.43 3.43 0 0 0 0 .393v1.134a1.133 1.133 0 0 0 2.267 0v-.673c.07-.144.106-.301.106-.46a3.43 3.43 0 0 0 0-.394c.755-2.048 6.801-4.987 8.706-4.987a1.133 1.133 0 1 0 0-2.268c-1.958 0-7.437 2.139-9.825 4.965-2.561-2.826-8.04-4.965-9.96-4.965ZM59.947 63.997c.627 0 1.134-.507 1.134-1.133v-2.668a1.134 1.134 0 1 0-2.267 0v2.668c0 .626.507 1.133 1.133 1.133Z" fill="#F1A000"/><path d="M80.797 35.017a1.136 1.136 0 0 0-1.617.171 1.132 1.132 0 0 0 .22 1.612 31.39 31.39 0 0 1 8.439 39.217 31.395 31.395 0 0 1-37.002 15.495 31.392 31.392 0 0 1 6.895-61.333l-1.179.755v.001a1.134 1.134 0 0 0 1.24 1.897l4.473-2.902a1.14 1.14 0 0 0 0-1.905l-4.534-2.962a1.135 1.135 0 1 0-1.232 1.905l1.42.921a33.649 33.649 0 0 0-31.302 29.563A33.642 33.642 0 0 0 72.89 92.554a33.644 33.644 0 0 0 7.921-57.538l-.014.001Z" fill="#F1A000"/></g></symbol><symbol id="icon__wall" viewBox="0 0 120 120"><g fill="none"><path d="M94.007 58.806c.626 0 1.133-.507 1.133-1.133V46.337a1.132 1.132 0 0 0-1.133-1.149h-12.47V34.752c0-.626-.507-1.133-1.133-1.133H25.992c-.626 0-1.134.507-1.134 1.133v11.336a1.136 1.136 0 0 0 1.134 1.156h12.47v9.295h-12.47c-.626 0-1.134.508-1.134 1.134v11.396c.02.611.523 1.096 1.134 1.096h12.47v10.24c0 .626.507 1.133 1.133 1.133h34.09l.816 2.003a4.532 4.532 0 0 0 2.478 2.494 4.519 4.519 0 0 0 3.515.03 4.602 4.602 0 0 0 2.857-4.534h10.655c.623 0 1.13-.503 1.133-1.126V69.069c0-.626-.507-1.134-1.133-1.134h-12.47v-9.068l12.47-.06ZM92.873 47.47v9.069H72.96l2.811-1.141a3.225 3.225 0 0 0 1.995-2.57 3.06 3.06 0 0 0 0-.453 3.212 3.212 0 0 0-1.262-2.554l-3.022-2.365 19.391.014ZM79.648 83.941a2.334 2.334 0 0 1-3.023-1.27l-.469-1.14-.922-2.268-3.68-8.985v-.113a2.337 2.337 0 0 1 .046-1.678c.096-.214.224-.413.378-.59.23-.29.53-.517.87-.665.278-.112.575-.171.876-.173.69.002 1.346.309 1.79.839a2.2 2.2 0 0 1 .37.62l.673 1.647 3.703 9.068.673 1.647c.077.2.125.408.143.62a2.32 2.32 0 0 1-1.428 2.441ZM66.801 67.898H54.332v-9.069h3.84-.001a3.22 3.22 0 0 0 3.06 2.267 3.377 3.377 0 0 0 1.24-.242l4.92-2.01h.755l2.812 6.9a4.53 4.53 0 0 0-1.512 1.904 1.86 1.86 0 0 0-.106.287l-2.539-.037Zm-5.094-20.654.28-2.056v-.211l.212-1.512a.983.983 0 0 1 1.58-.665l2.795 2.177.272.211.975.756 1.655 1.284.28.212 5.358 4.172c.24.177.383.457.385.755v.136a.983.983 0 0 1-.604.756l-5.6 2.267-.915-2.267a1.134 1.134 0 0 0-2.101.854l.915 2.267-.264.106-1.285.522-4.028 1.707a.987.987 0 0 1-1.36-.899.935.935 0 0 1 0-.144l.15-1.133 1.255-9.069.045-.226Zm17.563-2.267H70.3l-5.1-3.968h-.001a3.23 3.23 0 0 0-3.219-.446l-.257.12A3.182 3.182 0 0 0 60 43.134l-.257 1.843h-5.41V35.91H79.27v9.068Zm-52.144 0v-9.069h24.938v9.069H27.126Zm13.603 2.479h18.66l-1.248 9.067h-17.38l-.032-9.067ZM27.126 67.897V58.83h24.938v9.068H27.126Zm13.603 2.267h24.938v9.069H40.73v-9.069Zm27.206 9.069v-9.069h1.247c.058.33.15.655.272.968l3.31 8.116-4.829-.015Zm24.938-9.069v9.069H82.671l-3.703-9.069h13.905ZM79.27 67.897h-1.194l-.098-.242a4.588 4.588 0 0 0-4.889-2.81l-2.456-6.047h8.638v9.1Z" fill="#F1A000"/></g></symbol><symbol id="img__logo" viewBox="0 0 160 144"><g fill="none"><path fill="#fff" d="M0 0h160v144H0z"/><path d="M109.396 55.914h7.682l5.661 5.661 18.996-19h6.659l-22.94 23.967v8.377h-5.43v-8.377l-8.146-8.146v2.948h-8.144c-1.121 0-2.08.399-2.878 1.196-.796.796-1.194 1.755-1.194 2.877 0 1.12.398 2.08 1.194 2.877.798.797 1.757 1.195 2.878 1.195h2.714v-1.357h-2.714v-5.43h8.144v12.217h-8.144c-2.627 0-4.865-.927-6.718-2.785-1.858-1.853-2.784-4.09-2.784-6.717 0-2.623.927-4.865 2.784-6.718 1.853-1.853 4.091-2.784 6.718-2.784h5.663l-.001-.001ZM32.673 87.537c.936 0 1.762-.468 2.2-1.206l-.87-.504c-.24.445-.745.723-1.33.723-.497 0-.898-.154-1.205-.468-.3-.314-.453-.716-.453-1.206 0-.497.153-.898.453-1.212.307-.315.708-.468 1.205-.468.585 0 1.075.27 1.33.73l.87-.504c-.438-.738-1.272-1.206-2.2-1.206-.767 0-1.403.257-1.907.768-.504.504-.753 1.14-.753 1.892 0 .753.25 1.382.753 1.893.504.511 1.14.767 1.907.767ZM35.092 82.32v.963h1.374v4.151h1.008v-4.15h1.381v-.965h-3.763Z" fill="#070200"/><path fill-rule="evenodd" clip-rule="evenodd" d="M39.418 82.32v5.114h1.009v-1.68h.898c.49 0 .906-.168 1.242-.497.337-.33.505-.739.505-1.22 0-.483-.168-.893-.505-1.221a1.714 1.714 0 0 0-1.242-.497h-1.907Zm1.009 2.49v-1.548h.898c.432 0 .745.328.745.775 0 .438-.313.773-.745.773h-.898ZM47.997 86.77c.519-.52.775-1.148.775-1.894 0-.745-.256-1.373-.775-1.885a2.564 2.564 0 0 0-1.885-.775c-.738 0-1.367.257-1.885.775-.512.512-.767 1.14-.767 1.885 0 .746.255 1.374.767 1.893a2.587 2.587 0 0 0 1.885.767c.738 0 1.367-.256 1.885-.767Zm-3.062-.688c-.314-.314-.475-.716-.475-1.206s.161-.89.475-1.205c.315-.314.71-.475 1.177-.475.468 0 .862.16 1.176.475.315.314.476.716.476 1.205 0 .49-.161.892-.476 1.206-.314.314-.708.468-1.176.468-.468 0-.862-.154-1.177-.468Z" fill="#070200"/><path d="M53.449 87.434V82.32h-.768l-2.192 3.127V82.32H49.48v5.115h.767l2.192-3.12v3.12h1.009ZM54.019 82.32v.963h1.374v4.151H56.4v-4.15h1.38v-.965H54.02ZM59.353 85.322h1.937v-.95h-1.937v-1.089h2.12v-.964h-3.128v5.115h3.164v-.964h-2.156v-1.148ZM61.823 87.434c.519.051.928-.036 1.3-.328.38-.293.607-.906.607-1.791v-2.032h1.476v4.151h1.001V82.32H62.73v3.025c0 .965-.3 1.243-.906 1.155v.935Z" fill="#070200"/><path fill-rule="evenodd" clip-rule="evenodd" d="M68.166 84v-1.68h-1.008v5.114h1.907c.49 0 .906-.168 1.242-.497.336-.328.504-.737.504-1.22 0-.482-.168-.891-.504-1.22A1.716 1.716 0 0 0 69.065 84h-.9Zm0 2.492v-1.55h.899c.431 0 .745.337.745.775 0 .446-.314.775-.745.775h-.9Z" fill="#070200"/><path d="M74.377 84.35h-1.9v-2.03h-1.008v5.114h1.008v-2.12h1.9v2.12h1.002V82.32h-1.002v2.032Z" fill="#070200"/><path fill-rule="evenodd" clip-rule="evenodd" d="m80.713 87.434-1.798-5.115h-1.25l-1.79 5.115h1.09l.306-.92h2.039l.306.92h1.097Zm-2.419-3.953.701 2.09h-1.403l.702-2.09ZM82.832 82.32c-.475 0-.877.167-1.206.496a1.642 1.642 0 0 0-.497 1.198c0 .68.454 1.3 1.103 1.535l-1.249 1.885h1.133l1.177-1.776h.577v1.776h1.008V82.32h-2.046Zm0 2.454c-.38 0-.694-.343-.694-.76 0-.416.314-.752.694-.752h1.038v1.512h-1.038Z" fill="#070200"/><path d="m89.687 84.804 1.892-2.485h-1.162l-1.754 2.258v-2.258h-1.008v5.115h1.008v-2.397l1.827 2.397h1.162l-1.965-2.63Z" fill="#070200"/><path fill-rule="evenodd" clip-rule="evenodd" d="M96.015 86.77c.519-.52.775-1.148.775-1.894 0-.745-.256-1.373-.775-1.885a2.566 2.566 0 0 0-1.886-.775c-.737 0-1.366.257-1.885.775-.511.512-.767 1.14-.767 1.885 0 .746.256 1.374.767 1.893.52.511 1.148.767 1.885.767.738 0 1.367-.256 1.886-.767Zm-3.062-.688c-.314-.314-.475-.716-.475-1.206s.161-.89.475-1.205a1.603 1.603 0 0 1 1.176-.475c.468 0 .863.16 1.177.475.315.314.475.716.475 1.205 0 .49-.16.892-.475 1.206-.314.314-.709.468-1.177.468-.467 0-.862-.154-1.176-.468Z" fill="#070200"/><path d="m101.466 82.32-1.461 2.418-1.469-2.419h-1.038v5.115h1.009v-3.31l1.439 2.368h.117l1.44-2.375v3.317h1.001V82.32h-1.038ZM103.454 82.32v5.114h1.008v-4.15h1.805v4.15h1.009V82.32h-3.822Z" fill="#070200"/><path fill-rule="evenodd" clip-rule="evenodd" d="m112.61 87.434-1.798-5.115h-1.249l-1.79 5.115h1.088l.307-.92h2.039l.307.92h1.096Zm-2.419-3.953.702 2.09h-1.403l.701-2.09Z" fill="#070200"/><path d="M116.015 84.35h-1.9v-2.03h-1.008v5.114h1.008v-2.12h1.9v2.12h1.001V82.32h-1.001v2.032ZM121.935 87.434V82.32h-.768l-2.192 3.127V82.32h-1.009v5.115h.768l2.192-3.12v3.12h1.009Z" fill="#070200"/><path fill-rule="evenodd" clip-rule="evenodd" d="M124.448 82.32c-.474 0-.877.167-1.206.496a1.638 1.638 0 0 0-.496 1.198c0 .68.452 1.3 1.103 1.535l-1.25 1.885h1.133l1.177-1.776h.577v1.776h1.008V82.32h-2.046Zm0 2.454c-.38 0-.694-.343-.694-.76 0-.416.314-.752.694-.752h1.038v1.512h-1.038Z" fill="#070200"/><path d="M37.215 61.344v-5.43H20.926V74.92h16.29v-5.43h-10.86v-1.357H34.5v-5.43h-8.145v-1.358h10.86ZM44.003 65.185v9.734h-5.43V52.074L52.15 65.648v-9.733h5.43V78.76L44.002 65.185ZM75.226 61.344v-5.43h-16.29V74.92h16.29v-5.43h-10.86v-1.357h8.145v-5.43h-8.145v-1.358h10.86Z" fill="#070200"/><path fill-rule="evenodd" clip-rule="evenodd" d="M86.763 55.915c1.686 0 3.122.597 4.318 1.793 1.195 1.195 1.793 2.631 1.793 4.317 0 1.682-.598 3.123-1.793 4.314a6.186 6.186 0 0 1-1.71 1.237l7.343 7.343h-7.681l-7.02-7.02v7.02h-5.429V55.915h10.179Zm-4.75 5.43v1.357h4.75c.19 0 .352-.065.481-.195a.65.65 0 0 0 .2-.482.644.644 0 0 0-.2-.482.644.644 0 0 0-.481-.199h-4.75Z" fill="#070200"/><path d="m119.934 36.988-1.679 1.992L78.32 20.288 26.521 44.414v8.077H23.99v-9.69l54.321-25.3c7.148 3.333 14.585 6.82 22.006 10.3 6.625 3.107 13.237 6.208 19.618 9.187ZM132.522 79.448v15.757H23.989V79.448h2.532v13.224H129.99V79.448h2.532ZM128.085 42.566l9.26.01-15.894 15.876 7.489-15.5h-9.139l16.193-19.044-7.909 18.658ZM0 120h160v24H0z" fill="#F1A000"/><path d="M13.131 136v-9.191h3.185c1.014 0 1.807.251 2.379.754.572.494.858 1.261.858 2.301 0 .529-.095.992-.286 1.391a2.624 2.624 0 0 1-.767.988 3.1 3.1 0 0 1-1.04.533c-.416.13-.875.195-1.378.195h-1.82V136h-1.131Zm1.131-4.056h1.768c.33 0 .65-.039.962-.117a1.855 1.855 0 0 0 1.235-1.04c.113-.251.169-.576.169-.975 0-1.317-.71-1.976-2.132-1.976h-2.002v4.108ZM25.38 135.129c-.147.199-.316.36-.507.481a3.001 3.001 0 0 1-1.209.429c-.2.026-.399.039-.598.039-.32 0-.624-.039-.91-.117a2.333 2.333 0 0 1-.78-.377 1.987 1.987 0 0 1-.546-.65 1.95 1.95 0 0 1-.195-.884c0-.39.07-.715.208-.975.147-.269.342-.485.585-.65.243-.165.52-.277.832-.338a4.81 4.81 0 0 1 1.014-.104h2.015c0-.581-.126-1.04-.377-1.378-.251-.347-.676-.529-1.274-.546-.364 0-.685.061-.962.182a1.023 1.023 0 0 0-.572.598h-1.183a1.72 1.72 0 0 1 .364-.793c.182-.225.399-.407.65-.546.251-.147.524-.256.819-.325.295-.069.59-.104.884-.104.511 0 .94.087 1.287.26.355.165.641.386.858.663.217.269.368.598.455.988.087.39.13.828.13 1.313V136h-.923l-.065-.871Zm-1.3-2.223c-.208 0-.45.004-.728.013-.269 0-.529.026-.78.078a1.13 1.13 0 0 0-.611.325c-.147.165-.221.381-.221.65 0 .199.039.368.117.507.078.139.182.256.312.351.139.095.295.165.468.208.173.043.351.065.533.065.65 0 1.161-.156 1.534-.468.381-.321.576-.784.585-1.391v-.338H24.08ZM28.912 130.696c.13-.182.282-.334.455-.455.173-.13.36-.238.559-.325a2.83 2.83 0 0 1 .624-.182c.217-.043.425-.065.624-.065.468 0 .88.074 1.235.221.364.147.667.36.91.637.251.269.442.594.572.975.13.381.195.806.195 1.274 0 .468-.07.906-.208 1.313a2.975 2.975 0 0 1-.611 1.04c-.26.295-.585.529-.975.702-.381.165-.823.247-1.326.247-.572 0-1.053-.1-1.443-.299a2.726 2.726 0 0 1-.949-.819 3.712 3.712 0 0 1-.52-1.235 6.637 6.637 0 0 1-.182-1.404 8.324 8.324 0 0 1-.026-.832c.009-.425.03-.806.065-1.144.035-.347.091-.68.169-1.001.087-.329.204-.62.351-.871.234-.416.529-.724.884-.923a3.93 3.93 0 0 1 1.248-.416c.147-.026.477-.074.988-.143.52-.078.875-.13 1.066-.156.165-.017.342-.039.533-.065.2-.035.394-.069.585-.104v1.014c-.13.043-.29.082-.481.117-.19.026-.407.052-.65.078-.173.026-.355.052-.546.078-.182.017-.373.039-.572.065-.19.017-.485.056-.884.117a1.847 1.847 0 0 0-.728.247 1.812 1.812 0 0 0-.481.481 2.56 2.56 0 0 0-.364.884c-.07.338-.108.654-.117.949Zm2.08 4.407c.32 0 .602-.061.845-.182.251-.121.46-.286.624-.494.173-.208.303-.451.39-.728.087-.277.13-.572.13-.884 0-.303-.048-.585-.143-.845a1.962 1.962 0 0 0-.377-.689 1.623 1.623 0 0 0-.598-.455c-.234-.113-.52-.169-.858-.169-.312.009-.59.069-.832.182-.243.113-.45.273-.624.481a1.977 1.977 0 0 0-.39.702c-.087.26-.134.533-.143.819 0 .303.039.594.117.871.087.269.212.507.377.715.165.208.368.373.611.494.251.121.542.182.871.182ZM38.586 129.071c.546 0 1.019.087 1.417.26.399.173.733.416 1.001.728.278.312.481.685.611 1.118.139.425.208.893.208 1.404 0 .511-.07.984-.208 1.417-.13.425-.334.793-.61 1.105a2.79 2.79 0 0 1-1.015.715c-.407.173-.884.26-1.43.26-.546 0-1.023-.087-1.43-.26a2.945 2.945 0 0 1-1.014-.715 3.185 3.185 0 0 1-.61-1.105 4.913 4.913 0 0 1-.196-1.417c0-.511.065-.979.195-1.404.139-.433.342-.806.611-1.118.278-.312.62-.555 1.027-.728.407-.173.889-.26 1.443-.26Zm-.026 6.032c.373 0 .694-.065.962-.195.278-.13.503-.308.676-.533.182-.234.312-.503.39-.806.087-.303.13-.633.13-.988a3.53 3.53 0 0 0-.13-.975 2.055 2.055 0 0 0-.39-.806 1.748 1.748 0 0 0-.676-.546c-.268-.13-.59-.195-.962-.195-.373 0-.693.065-.962.195-.268.13-.494.312-.676.546a2.326 2.326 0 0 0-.39.806 3.9 3.9 0 0 0-.117.975c0 .355.04.685.117.988.087.303.217.572.39.806.182.225.408.403.676.533.269.13.59.195.962.195ZM48.359 129.149v.975h-2.353V136H44.9v-5.876h-2.353v-.975h5.81ZM53.856 135.129c-.148.199-.317.36-.507.481a3.001 3.001 0 0 1-1.209.429c-.2.026-.4.039-.598.039-.321 0-.624-.039-.91-.117a2.333 2.333 0 0 1-.78-.377 1.987 1.987 0 0 1-.546-.65 1.95 1.95 0 0 1-.195-.884c0-.39.069-.715.208-.975a1.84 1.84 0 0 1 .585-.65c.242-.165.52-.277.832-.338a4.81 4.81 0 0 1 1.014-.104h2.015c0-.581-.126-1.04-.377-1.378-.252-.347-.676-.529-1.274-.546-.364 0-.685.061-.962.182a1.023 1.023 0 0 0-.572.598h-1.183a1.72 1.72 0 0 1 .364-.793c.182-.225.398-.407.65-.546a2.94 2.94 0 0 1 .819-.325c.294-.069.589-.104.884-.104.51 0 .94.087 1.287.26.355.165.64.386.858.663.216.269.368.598.455.988.086.39.13.828.13 1.313V136h-.923l-.065-.871Zm-1.3-2.223c-.208 0-.451.004-.728.013a3.84 3.84 0 0 0-.78.078 1.13 1.13 0 0 0-.611.325c-.148.165-.221.381-.221.65 0 .199.039.368.117.507.078.139.182.256.312.351.138.095.294.165.468.208.173.043.35.065.533.065.65 0 1.16-.156 1.534-.468.38-.321.576-.784.585-1.391v-.338h-1.21ZM57.414 132.984c.026.303.086.585.182.845.104.251.242.472.416.663.173.191.385.342.637.455.26.104.559.156.897.156.164 0 .333-.013.507-.039.182-.035.35-.087.507-.156.156-.078.294-.178.416-.299.12-.121.212-.269.273-.442h1.13a2.188 2.188 0 0 1-.402.858 2.296 2.296 0 0 1-.663.598 2.946 2.946 0 0 1-.845.351 4.383 4.383 0 0 1-.95.104c-.545 0-1.022-.087-1.43-.26a2.814 2.814 0 0 1-1-.715 3.026 3.026 0 0 1-.598-1.105 4.913 4.913 0 0 1-.195-1.417c0-.511.069-.979.208-1.404a3.34 3.34 0 0 1 .624-1.118c.268-.312.598-.555.988-.728.39-.173.853-.26 1.39-.26.547 0 1.019.108 1.418.325.398.217.719.503.962.858.242.347.411.724.507 1.131.104.407.147.784.13 1.131 0 .078-.005.156-.013.234 0 .078-.005.156-.013.234h-5.083Zm3.99-.962c-.017-.581-.199-1.053-.545-1.417-.347-.364-.81-.546-1.391-.546-.321 0-.603.052-.845.156a1.729 1.729 0 0 0-.611.429 2.06 2.06 0 0 0-.39.637 2.65 2.65 0 0 0-.182.741h3.965ZM64.008 129.149h1.482l2.223 3.432 2.184-3.432h1.456V136H70.26v-5.629l-2.418 3.874h-.312l-2.431-3.874V136h-1.092v-6.851ZM79.591 134.479c.347 0 .62-.082.82-.247.207-.165.333-.351.376-.559h1.924c-.06.442-.186.815-.376 1.118-.191.303-.43.555-.715.754a2.72 2.72 0 0 1-.95.429 4.63 4.63 0 0 1-1.105.13c-.572 0-1.07-.078-1.495-.234a2.768 2.768 0 0 1-1.04-.702 3.222 3.222 0 0 1-.636-1.118 4.937 4.937 0 0 1-.209-1.482c0-.529.078-1.014.234-1.456.157-.442.377-.819.663-1.131a2.91 2.91 0 0 1 1.08-.715c.424-.173.91-.26 1.456-.26.398 0 .77.048 1.118.143.355.095.667.243.935.442.278.199.503.455.676.767.183.303.304.667.365 1.092h-1.925c-.043-.208-.173-.394-.39-.559-.208-.165-.48-.247-.819-.247a1.64 1.64 0 0 0-.74.156c-.2.104-.364.247-.494.429-.122.182-.209.39-.26.624a3.408 3.408 0 0 0-.079.741c0 .555.118 1.01.352 1.365.242.347.654.52 1.234.52ZM89.38 132.334c.207-.173.415-.36.623-.559.217-.199.425-.407.624-.624.2-.199.369-.416.507-.65.148-.234.226-.494.234-.78.018-.459-.104-.802-.364-1.027-.26-.225-.606-.334-1.04-.325-.39.009-.706.1-.949.273-.234.173-.372.425-.416.754h-1.755c.018-.511.139-.953.364-1.326a2.65 2.65 0 0 1 .923-.91 2.95 2.95 0 0 1 .91-.351 4.5 4.5 0 0 1 1.04-.117c.98-.017 1.751.243 2.314.78.243.225.438.507.585.845.148.329.221.719.221 1.17 0 .329-.034.641-.104.936a2.54 2.54 0 0 1-.35.819 3.952 3.952 0 0 1-.339.481c-.112.139-.23.269-.35.39a5.05 5.05 0 0 1-.378.364c-.13.121-.277.256-.442.403-.32.277-.628.533-.923.767a38.75 38.75 0 0 0-.819.689h3.601V136H86.91v-1.534l2.47-2.132ZM97.893 126.679c.529 0 1.014.091 1.456.273.451.182.832.468 1.144.858.321.381.568.867.741 1.456.182.589.273 1.291.273 2.106 0 .823-.086 1.53-.26 2.119-.173.589-.416 1.075-.728 1.456a2.825 2.825 0 0 1-1.144.845 3.859 3.859 0 0 1-1.482.273 3.958 3.958 0 0 1-1.495-.273 2.948 2.948 0 0 1-1.144-.845c-.312-.381-.554-.867-.728-1.456-.164-.589-.247-1.296-.247-2.119 0-.815.087-1.517.26-2.106.174-.589.42-1.075.741-1.456.321-.39.702-.676 1.144-.858a3.823 3.823 0 0 1 1.47-.273Zm0 7.722c.555 0 .988-.234 1.3-.702.312-.468.468-1.244.468-2.327 0-1.075-.156-1.846-.468-2.314-.312-.477-.745-.715-1.3-.715-.563 0-1 .238-1.313.715-.303.468-.455 1.239-.455 2.314 0 1.083.152 1.859.455 2.327.312.468.75.702 1.313.702ZM106.012 136h-1.898v-6.773h-1.872v-1.3c.278 0 .533-.022.767-.065.243-.052.468-.13.676-.234.182-.095.356-.212.52-.351.165-.147.295-.308.39-.481h1.417V136ZM108.033 132.048l.585-5.252h5.59v1.638h-4.069l-.26 1.898a3.86 3.86 0 0 1 .832-.312c.269-.069.576-.1.923-.091.451.009.858.082 1.222.221.373.139.689.338.949.598.26.26.459.572.598.936.139.355.208.758.208 1.209 0 .503-.087.953-.26 1.352a2.939 2.939 0 0 1-.715 1.014 3.276 3.276 0 0 1-1.092.624 4.18 4.18 0 0 1-1.378.208c-.945 0-1.699-.217-2.262-.65-.563-.433-.897-1.14-1.001-2.119h1.859c.078.373.243.641.494.806.26.165.55.256.871.273.459.017.836-.091 1.131-.325.295-.234.446-.602.455-1.105.009-.494-.134-.867-.429-1.118-.295-.251-.667-.368-1.118-.351a2.18 2.18 0 0 0-.754.156 1.968 1.968 0 0 0-.598.39h-1.781ZM124.555 129.149v1.586h-3.328V136h-1.833v-6.851h5.161ZM128.609 136.104c-1.109 0-1.963-.312-2.561-.936-.598-.633-.897-1.508-.897-2.626 0-.537.078-1.023.234-1.456.165-.442.39-.819.676-1.131a2.784 2.784 0 0 1 1.079-.702 4.107 4.107 0 0 1 1.469-.247c.538 0 1.019.082 1.443.247.434.156.798.39 1.092.702.304.312.533.689.689 1.131.165.433.247.919.247 1.456 0 1.127-.303 2.002-.91 2.626-.598.624-1.451.936-2.561.936Zm0-5.46c-.554 0-.97.182-1.248.546-.268.364-.403.819-.403 1.365 0 .555.135 1.014.403 1.378.278.364.694.546 1.248.546.555 0 .962-.182 1.222-.546.269-.364.403-.823.403-1.378 0-.546-.134-1.001-.403-1.365-.26-.364-.667-.546-1.222-.546ZM139.67 129.149v5.265h.897v3.471h-1.833V136h-4.329v1.885h-1.846v-3.471h.26c.217 0 .381-.056.494-.169.113-.121.204-.273.273-.455.078-.208.134-.429.169-.663.035-.234.061-.429.078-.585.061-.581.091-1.144.091-1.69.009-.555.022-1.122.039-1.703h5.707Zm-1.846 5.265v-3.679h-2.158c0 .269-.009.542-.026.819a28.94 28.94 0 0 1-.039.832c-.017.329-.052.68-.104 1.053-.052.364-.16.689-.325.975h2.652ZM145.774 135.155c-.26.347-.581.594-.962.741a3.32 3.32 0 0 1-1.287.208c-.633-.017-1.161-.195-1.586-.533a2.127 2.127 0 0 1-.533-.676 2.295 2.295 0 0 1-.182-.949 2.14 2.14 0 0 1 .247-.988c.165-.295.412-.537.741-.728.277-.147.589-.251.936-.312a6.848 6.848 0 0 1 1.157-.091h1.404c.026-.425-.074-.741-.299-.949-.217-.217-.524-.329-.923-.338-.13 0-.264.009-.403.026a1.419 1.419 0 0 0-.39.104.93.93 0 0 0-.299.221.673.673 0 0 0-.156.325h-1.885c.043-.416.156-.763.338-1.04.191-.286.429-.516.715-.689.286-.173.602-.295.949-.364a5.074 5.074 0 0 1 1.729-.078c.217.017.429.061.637.13.208.061.403.147.585.26.191.104.368.243.533.416.295.338.477.728.546 1.17.078.433.113.858.104 1.274V136h-1.677l-.039-.845Zm-.065-2.184h-1.339c-.13 0-.277.013-.442.039a1.254 1.254 0 0 0-.429.143c-.121.069-.225.16-.312.273a.713.713 0 0 0-.117.416c0 .139.026.26.078.364a.921.921 0 0 0 .221.26c.095.069.208.126.338.169.13.035.26.052.39.052.251.009.485-.035.702-.13.225-.095.42-.23.585-.403a1.49 1.49 0 0 0 .234-.468c.061-.182.091-.42.091-.715Z" fill="#fff"/></g></symbol>
</svg>