<svg xmlns="http://www.w3.org/2000/svg" xmlns:xlink="http://www.w3.org/1999/xlink"><symbol id="icon__mail" viewBox="0 0 24 24"><g fill="none"><path clip-rule="evenodd" d="M3 6.8c0 .6.3 1.1.8 1.5l6 4.1c1.4.9 3.1.9 4.5 0l6-4c.4-.5.7-1 .7-1.6 0-1-.8-1.8-1.8-1.8H4.8C3.8 5 3 5.8 3 6.8Z"/><path d="M3 7v10c0 1.1.9 2 2 2h14c1.1 0 2-.9 2-2V7M3.588 18.412l6.094-6.094M14.36 12.36l6.052 6.052"/></g></symbol><symbol id="icon__phone" viewBox="0 0 24 24"><g fill="none"><path d="M9.499 2.996v1.8a.557.557 0 0 0 .5.601h4.002a.557.557 0 0 0 .5-.6v-1.8M10 18.003h4"/><path clip-rule="evenodd" d="M16.002 21.004H7.998a2 2 0 0 1-2-2.001V4.997a2 2 0 0 1 2-2h8.004a2 2 0 0 1 2 2v14.006a2 2 0 0 1-2 2Z"/></g></symbol><symbol id="icon__social_tg" viewBox="0 0 24 24"><g fill="none"><path d="M11.795 16.906 9.73 18.915a.666.666 0 0 1-1.102-.284l-1.376-4.53"/><path d="m14.104 10.927-3.917 3.535a.843.843 0 0 0 .066 1.305l5.378 3.973a.904.904 0 0 0 1.422-.54l2.641-12.447a.775.775 0 0 0-1.037-.884L3.142 11.853a.516.516 0 0 0 .032.975L7.251 14.1"/></g></symbol><symbol id="icon__social_wa" viewBox="0 0 24 24"><g fill="none"><path clip-rule="evenodd" d="M18.204 5.762a8.665 8.665 0 0 0-6.167-2.556c-4.807 0-8.718 3.909-8.719 8.714a8.7 8.7 0 0 0 1.163 4.357l-1.237 4.516 4.622-1.212a8.717 8.717 0 0 0 4.167 1.061h.004c4.805 0 8.716-3.91 8.718-8.715a8.662 8.662 0 0 0-2.551-6.165Z"/><path d="m13.095 13.56.406-.403c.373-.37.963-.417 1.393-.115.416.292.792.554 1.142.798.556.386.623 1.178.144 1.656l-.359.359M8.145 8.179l.359-.359a1.083 1.083 0 0 1 1.656.144c.243.35.505.726.798 1.142a1.09 1.09 0 0 1-.115 1.393l-.403.406M15.821 15.855c-1.481 1.474-3.97.222-5.935-1.744"/><path d="M9.888 14.114C7.923 12.148 6.671 9.66 8.145 8.179M10.44 10.905a8.686 8.686 0 0 0 1.19 1.463l.002.002c.462.462.96.871 1.463 1.19"/></g></symbol><symbol id="img__logo" viewBox="0 0 160 120"><g fill="none"><path fill="#fff" d="M0 0h160v120H0z"/><path d="M109.396 55.914h7.682l5.661 5.661 18.996-19h6.659l-22.94 23.967v8.377h-5.43v-8.377l-8.146-8.146v2.948h-8.144c-1.121 0-2.08.399-2.878 1.196-.796.796-1.194 1.755-1.194 2.877 0 1.12.398 2.08 1.194 2.877.798.797 1.757 1.195 2.878 1.195h2.714v-1.357h-2.714v-5.43h8.144v12.217h-8.144c-2.627 0-4.865-.927-6.718-2.785-1.858-1.853-2.784-4.09-2.784-6.717 0-2.623.927-4.865 2.784-6.718 1.853-1.853 4.091-2.784 6.718-2.784h5.663l-.001-.001ZM32.673 87.537c.936 0 1.762-.468 2.2-1.206l-.87-.505c-.24.446-.745.724-1.33.724-.497 0-.898-.154-1.205-.468-.3-.314-.453-.716-.453-1.206 0-.497.153-.898.453-1.212.307-.315.708-.468 1.205-.468.585 0 1.075.27 1.33.73l.87-.504c-.438-.738-1.272-1.206-2.2-1.206-.767 0-1.403.257-1.907.768-.504.504-.753 1.14-.753 1.892 0 .753.25 1.382.753 1.893.504.511 1.14.767 1.907.767ZM35.092 82.32v.963h1.374v4.151h1.008v-4.15h1.381v-.965h-3.763Z" fill="#070200"/><path fill-rule="evenodd" clip-rule="evenodd" d="M39.418 82.32v5.114h1.009v-1.68h.898c.49 0 .906-.168 1.242-.497.337-.33.505-.739.505-1.22 0-.483-.168-.893-.505-1.221a1.714 1.714 0 0 0-1.242-.497h-1.907Zm1.009 2.49v-1.548h.898c.432 0 .745.328.745.775 0 .438-.313.773-.745.773h-.898ZM47.997 86.77c.519-.52.775-1.148.775-1.894 0-.745-.256-1.373-.775-1.885a2.564 2.564 0 0 0-1.885-.775c-.738 0-1.367.257-1.885.775-.512.512-.767 1.14-.767 1.885 0 .746.255 1.374.767 1.893a2.587 2.587 0 0 0 1.885.767c.738 0 1.367-.256 1.885-.767Zm-3.062-.688c-.314-.314-.475-.716-.475-1.206s.161-.89.475-1.205c.315-.314.71-.475 1.177-.475.468 0 .862.16 1.176.475.315.314.476.716.476 1.205 0 .49-.161.892-.476 1.206-.314.314-.708.468-1.176.468-.468 0-.862-.154-1.177-.468Z" fill="#070200"/><path d="M53.449 87.434V82.32h-.768l-2.192 3.127V82.32H49.48v5.115h.767l2.192-3.12v3.12h1.009ZM54.019 82.32v.963h1.374v4.151H56.4v-4.15h1.38v-.965H54.02ZM59.353 85.322h1.937v-.95h-1.937v-1.089h2.12v-.964h-3.128v5.115h3.164v-.964h-2.156v-1.148ZM61.823 87.434c.519.051.928-.036 1.3-.328.38-.293.607-.906.607-1.791v-2.032h1.476v4.151h1.001V82.32H62.73v3.025c0 .965-.3 1.243-.906 1.155v.935Z" fill="#070200"/><path fill-rule="evenodd" clip-rule="evenodd" d="M68.166 84v-1.68h-1.008v5.114h1.907c.49 0 .906-.168 1.242-.497.336-.328.504-.737.504-1.22 0-.482-.168-.891-.504-1.22A1.716 1.716 0 0 0 69.065 84h-.9Zm0 2.492v-1.55h.899c.431 0 .745.337.745.775 0 .446-.314.775-.745.775h-.9Z" fill="#070200"/><path d="M74.377 84.35h-1.9v-2.03h-1.008v5.114h1.008v-2.12h1.9v2.12h1.002V82.32h-1.002v2.032Z" fill="#070200"/><path fill-rule="evenodd" clip-rule="evenodd" d="m80.713 87.434-1.798-5.115h-1.25l-1.79 5.115h1.09l.306-.92h2.039l.306.92h1.097Zm-2.419-3.953.701 2.09h-1.403l.702-2.09ZM82.832 82.32c-.475 0-.877.167-1.206.496a1.642 1.642 0 0 0-.497 1.198c0 .68.454 1.3 1.103 1.535l-1.249 1.885h1.133l1.177-1.776h.577v1.776h1.008V82.32h-2.046Zm0 2.454c-.38 0-.694-.343-.694-.76 0-.416.314-.752.694-.752h1.038v1.512h-1.038Z" fill="#070200"/><path d="m89.687 84.804 1.892-2.485h-1.162l-1.754 2.258v-2.258h-1.008v5.115h1.008v-2.397l1.827 2.397h1.162l-1.965-2.63Z" fill="#070200"/><path fill-rule="evenodd" clip-rule="evenodd" d="M96.015 86.77c.519-.52.775-1.148.775-1.894 0-.745-.256-1.373-.775-1.885a2.566 2.566 0 0 0-1.886-.775c-.738 0-1.366.257-1.885.775-.511.512-.767 1.14-.767 1.885 0 .746.256 1.374.767 1.893.52.511 1.147.767 1.885.767s1.367-.256 1.886-.767Zm-3.062-.688c-.314-.314-.475-.716-.475-1.206s.161-.89.475-1.205a1.603 1.603 0 0 1 1.176-.475c.468 0 .863.16 1.177.475.315.314.475.716.475 1.205 0 .49-.16.892-.475 1.206-.314.314-.709.468-1.177.468-.467 0-.862-.154-1.176-.468Z" fill="#070200"/><path d="m101.466 82.32-1.461 2.418-1.469-2.419h-1.038v5.115h1.009v-3.31l1.439 2.368h.117l1.44-2.375v3.317h1.001V82.32h-1.038ZM103.454 82.32v5.114h1.008v-4.15h1.805v4.15h1.009V82.32h-3.822Z" fill="#070200"/><path fill-rule="evenodd" clip-rule="evenodd" d="m112.61 87.434-1.798-5.115h-1.249l-1.79 5.115h1.088l.307-.92h2.039l.307.92h1.096Zm-2.419-3.953.702 2.09h-1.403l.701-2.09Z" fill="#070200"/><path d="M116.015 84.35h-1.9v-2.03h-1.008v5.114h1.008v-2.12h1.9v2.12h1.001V82.32h-1.001v2.032ZM121.935 87.434V82.32h-.768l-2.192 3.127V82.32h-1.009v5.115h.768l2.192-3.12v3.12h1.009Z" fill="#070200"/><path fill-rule="evenodd" clip-rule="evenodd" d="M124.448 82.32c-.474 0-.877.167-1.206.496a1.638 1.638 0 0 0-.496 1.198c0 .68.452 1.3 1.103 1.535l-1.25 1.885h1.133l1.177-1.776h.577v1.776h1.008V82.32h-2.046Zm0 2.454c-.38 0-.694-.343-.694-.76 0-.416.314-.752.694-.752h1.038v1.512h-1.038Z" fill="#070200"/><path d="M37.215 61.344v-5.43H20.926V74.92h16.29v-5.43h-10.86v-1.357H34.5v-5.43h-8.145v-1.358h10.86ZM44.003 65.185v9.734h-5.43V52.074L52.15 65.648v-9.733h5.43V78.76L44.002 65.185ZM75.226 61.344v-5.43h-16.29V74.92h16.29v-5.43h-10.86v-1.357h8.145v-5.43h-8.145v-1.358h10.86Z" fill="#070200"/><path fill-rule="evenodd" clip-rule="evenodd" d="M86.763 55.915c1.686 0 3.122.597 4.318 1.793 1.195 1.195 1.793 2.63 1.793 4.317 0 1.682-.598 3.123-1.793 4.314a6.186 6.186 0 0 1-1.71 1.237l7.343 7.343h-7.681l-7.02-7.02v7.02h-5.429V55.915h10.179Zm-4.75 5.43v1.357h4.75c.19 0 .352-.065.481-.195a.65.65 0 0 0 .2-.482.644.644 0 0 0-.2-.482.644.644 0 0 0-.481-.199h-4.75Z" fill="#070200"/><path d="m119.934 36.988-1.679 1.992L78.32 20.288 26.521 44.414v8.077H23.99v-9.69l54.321-25.3c7.148 3.333 14.585 6.82 22.006 10.3 6.625 3.107 13.237 6.208 19.618 9.187ZM132.522 79.448v15.757H23.989V79.448h2.532v13.224H129.99V79.448h2.532ZM128.085 42.566l9.26.01-15.894 15.876 7.489-15.5h-9.139l16.193-19.044-7.909 18.658Z" fill="#F1A000"/></g></symbol>
</svg>